<svg width="2780" height="258" viewBox="0 0 2780 258" fill="none" xmlns="http://www.w3.org/2000/svg">
<rect width="4.75419" height="162.821" rx="2.37709" transform="matrix(0.992083 0.125584 -0.699212 0.714915 509.846 81)" fill="white"/>
<rect width="4.75419" height="162.821" rx="2.37709" transform="matrix(0.992083 0.125584 -0.699212 0.714915 567.846 81)" fill="white"/>
<rect width="4.75419" height="162.821" rx="2.37709" transform="matrix(0.992083 0.125584 -0.699212 0.714915 625.846 81)" fill="white"/>
<rect width="4.75419" height="162.821" rx="2.37709" transform="matrix(0.992083 0.125584 -0.699212 0.714915 683.846 81)" fill="white"/>
<rect width="4.75419" height="162.821" rx="2.37709" transform="matrix(0.992083 0.125584 -0.699212 0.714915 741.846 81)" fill="white"/>
<rect width="4.75419" height="162.821" rx="2.37709" transform="matrix(0.992083 0.125584 -0.699212 0.714915 799.846 81)" fill="white"/>
<rect width="4.75419" height="162.821" rx="2.37709" transform="matrix(0.992083 0.125584 -0.699212 0.714915 857.846 81)" fill="white"/>
<rect width="4.75419" height="162.821" rx="2.37709" transform="matrix(0.992083 0.125584 -0.699212 0.714915 915.846 81)" fill="white"/>
<rect width="4.75419" height="162.821" rx="2.37709" transform="matrix(0.992083 0.125584 -0.699212 0.714915 802.406 81)" fill="white"/>
<rect width="4.75419" height="162.821" rx="2.37709" transform="matrix(0.992083 0.125584 -0.699212 0.714915 860.406 81)" fill="white"/>
<rect width="4.75419" height="162.821" rx="2.37709" transform="matrix(0.992083 0.125584 -0.699212 0.714915 918.406 81)" fill="white"/>
<rect width="4.75419" height="162.821" rx="2.37709" transform="matrix(0.992083 0.125584 -0.699212 0.714915 976.406 81)" fill="white"/>
<rect width="4.75419" height="162.821" rx="2.37709" transform="matrix(0.992083 0.125584 -0.699212 0.714915 1034.41 81)" fill="white"/>
<rect width="4.75419" height="162.821" rx="2.37709" transform="matrix(0.992083 0.125584 -0.699212 0.714915 1092.41 81)" fill="white"/>
<rect width="4.75419" height="162.821" rx="2.37709" transform="matrix(0.992083 0.125584 -0.699212 0.714915 1150.41 81)" fill="white"/>
<rect width="4.75419" height="162.821" rx="2.37709" transform="matrix(0.992083 0.125584 -0.699212 0.714915 1208.41 81)" fill="white"/>
<rect width="4.75419" height="162.821" rx="2.37709" transform="matrix(0.992083 0.125584 -0.699212 0.714915 1094.97 81)" fill="white"/>
<rect width="4.75419" height="162.821" rx="2.37709" transform="matrix(0.992083 0.125584 -0.699212 0.714915 1152.97 81)" fill="white"/>
<rect width="4.75419" height="162.821" rx="2.37709" transform="matrix(0.992083 0.125584 -0.699212 0.714915 1210.97 81)" fill="white"/>
<rect width="4.75419" height="162.821" rx="2.37709" transform="matrix(0.992083 0.125584 -0.699212 0.714915 1268.97 81)" fill="white"/>
<rect width="4.75419" height="162.821" rx="2.37709" transform="matrix(0.992083 0.125584 -0.699212 0.714915 1326.97 81)" fill="white"/>
<rect width="4.75419" height="162.821" rx="2.37709" transform="matrix(0.992083 0.125584 -0.699212 0.714915 1384.97 81)" fill="white"/>
<rect width="4.75419" height="162.821" rx="2.37709" transform="matrix(0.992083 0.125584 -0.699212 0.714915 1442.97 81)" fill="white"/>
<rect width="4.75419" height="162.821" rx="2.37709" transform="matrix(0.992083 0.125584 -0.699212 0.714915 1500.97 81)" fill="white"/>
<rect width="4.75419" height="162.821" rx="2.37709" transform="matrix(0.992083 0.125584 -0.699212 0.714915 1387.53 81)" fill="white"/>
<rect width="4.75419" height="162.821" rx="2.37709" transform="matrix(0.992083 0.125584 -0.699212 0.714915 1445.53 81)" fill="white"/>
<rect width="4.75419" height="162.821" rx="2.37709" transform="matrix(0.992083 0.125584 -0.699212 0.714915 1503.53 81)" fill="white"/>
<rect width="4.75419" height="162.821" rx="2.37709" transform="matrix(0.992083 0.125584 -0.699212 0.714915 1561.53 81)" fill="white"/>
<rect width="4.75419" height="162.821" rx="2.37709" transform="matrix(0.992083 0.125584 -0.699212 0.714915 1619.53 81)" fill="white"/>
<rect width="4.75419" height="162.821" rx="2.37709" transform="matrix(0.992083 0.125584 -0.699212 0.714915 1677.53 81)" fill="white"/>
<rect width="4.75419" height="162.821" rx="2.37709" transform="matrix(0.992083 0.125584 -0.699212 0.714915 1735.53 81)" fill="white"/>
<rect width="4.75419" height="162.821" rx="2.37709" transform="matrix(0.992083 0.125584 -0.699212 0.714915 1793.53 81)" fill="white"/>
<rect width="4.75419" height="162.821" rx="2.37709" transform="matrix(0.992083 0.125584 -0.699212 0.714915 1094.97 81)" fill="white"/>
<rect width="4.75419" height="162.821" rx="2.37709" transform="matrix(0.992083 0.125584 -0.699212 0.714915 1152.97 81)" fill="white"/>
<rect width="4.75419" height="162.821" rx="2.37709" transform="matrix(0.992083 0.125584 -0.699212 0.714915 1210.97 81)" fill="white"/>
<rect width="4.75419" height="162.821" rx="2.37709" transform="matrix(0.992083 0.125584 -0.699212 0.714915 1268.97 81)" fill="white"/>
<rect width="4.75419" height="162.821" rx="2.37709" transform="matrix(0.992083 0.125584 -0.699212 0.714915 1326.97 81)" fill="white"/>
<rect width="4.75419" height="162.821" rx="2.37709" transform="matrix(0.992083 0.125584 -0.699212 0.714915 1384.97 81)" fill="white"/>
<rect width="4.75419" height="162.821" rx="2.37709" transform="matrix(0.992083 0.125584 -0.699212 0.714915 1442.97 81)" fill="white"/>
<rect width="4.75419" height="162.821" rx="2.37709" transform="matrix(0.992083 0.125584 -0.699212 0.714915 1500.97 81)" fill="white"/>
<rect width="4.75419" height="162.821" rx="2.37709" transform="matrix(0.992083 0.125584 -0.699212 0.714915 1387.53 81)" fill="white"/>
<rect width="4.75419" height="162.821" rx="2.37709" transform="matrix(0.992083 0.125584 -0.699212 0.714915 1445.53 81)" fill="white"/>
<rect width="4.75419" height="162.821" rx="2.37709" transform="matrix(0.992083 0.125584 -0.699212 0.714915 1503.53 81)" fill="white"/>
<rect width="4.75419" height="162.821" rx="2.37709" transform="matrix(0.992083 0.125584 -0.699212 0.714915 1561.53 81)" fill="white"/>
<rect width="4.75419" height="162.821" rx="2.37709" transform="matrix(0.992083 0.125584 -0.699212 0.714915 1619.53 81)" fill="white"/>
<rect width="4.75419" height="162.821" rx="2.37709" transform="matrix(0.992083 0.125584 -0.699212 0.714915 1677.53 81)" fill="white"/>
<rect width="4.75419" height="162.821" rx="2.37709" transform="matrix(0.992083 0.125584 -0.699212 0.714915 1735.53 81)" fill="white"/>
<rect width="4.75419" height="162.821" rx="2.37709" transform="matrix(0.992083 0.125584 -0.699212 0.714915 1793.53 81)" fill="white"/>
<rect width="4.75419" height="162.821" rx="2.37709" transform="matrix(0.992083 0.125584 -0.699212 0.714915 1680.09 81)" fill="white"/>
<rect width="4.75419" height="162.821" rx="2.37709" transform="matrix(0.992083 0.125584 -0.699212 0.714915 1738.09 81)" fill="white"/>
<rect width="4.75419" height="162.821" rx="2.37709" transform="matrix(0.992083 0.125584 -0.699212 0.714915 1796.09 81)" fill="white"/>
<rect width="4.75419" height="162.821" rx="2.37709" transform="matrix(0.992083 0.125584 -0.699212 0.714915 1854.09 81)" fill="white"/>
<rect width="4.75419" height="162.821" rx="2.37709" transform="matrix(0.992083 0.125584 -0.699212 0.714915 1912.09 81)" fill="white"/>
<rect width="4.75419" height="162.821" rx="2.37709" transform="matrix(0.992083 0.125584 -0.699212 0.714915 1970.09 81)" fill="white"/>
<rect width="4.75419" height="162.821" rx="2.37709" transform="matrix(0.992083 0.125584 -0.699212 0.714915 2028.09 81)" fill="white"/>
<rect width="4.75419" height="162.821" rx="2.37709" transform="matrix(0.992083 0.125584 -0.699212 0.714915 2086.09 81)" fill="white"/>
<rect width="4.75419" height="162.821" rx="2.37709" transform="matrix(0.992083 0.125584 -0.699212 0.714915 1972.65 81)" fill="white"/>
<rect width="4.75419" height="162.821" rx="2.37709" transform="matrix(0.992083 0.125584 -0.699212 0.714915 2030.65 81)" fill="white"/>
<rect width="4.75419" height="162.821" rx="2.37709" transform="matrix(0.992083 0.125584 -0.699212 0.714915 2088.65 81)" fill="white"/>
<rect width="4.75419" height="162.821" rx="2.37709" transform="matrix(0.992083 0.125584 -0.699212 0.714915 2146.65 81)" fill="white"/>
<rect width="4.75419" height="162.821" rx="2.37709" transform="matrix(0.992083 0.125584 -0.699212 0.714915 2204.65 81)" fill="white"/>
<rect width="4.75419" height="162.821" rx="2.37709" transform="matrix(0.992083 0.125584 -0.699212 0.714915 2262.65 81)" fill="white"/>
<rect width="4.75419" height="162.821" rx="2.37709" transform="matrix(0.992083 0.125584 -0.699212 0.714915 2320.65 81)" fill="white"/>
<rect width="4.75419" height="162.821" rx="2.37709" transform="matrix(0.992083 0.125584 -0.699212 0.714915 2378.65 81)" fill="white"/>
</svg>
