<svg width="2780" height="258" viewBox="0 0 2780 258" fill="none" xmlns="http://www.w3.org/2000/svg">
<g clip-path="url(#clip0_379_2)">
<rect width="4.75419" height="162.821" rx="2.37709" transform="matrix(0.992083 0.125584 -0.699212 0.714915 509.846 81)" fill="white"/>
<rect width="4.75419" height="162.821" rx="2.37709" transform="matrix(0.992083 0.125584 -0.699212 0.714915 567.846 81)" fill="white"/>
<rect width="4.75419" height="162.821" rx="2.37709" transform="matrix(0.992083 0.125584 -0.699212 0.714915 625.846 81)" fill="white"/>
<rect width="4.75419" height="162.821" rx="2.37709" transform="matrix(0.992083 0.125584 -0.699212 0.714915 683.846 81)" fill="white"/>
<rect width="4.75419" height="162.821" rx="2.37709" transform="matrix(0.992083 0.125584 -0.699212 0.714915 741.846 81)" fill="white"/>
<rect width="4.75419" height="162.821" rx="2.37709" transform="matrix(0.992083 0.125584 -0.699212 0.714915 799.846 81)" fill="white"/>
<rect width="4.75419" height="162.821" rx="2.37709" transform="matrix(0.992083 0.125584 -0.699212 0.714915 857.846 81)" fill="white"/>
<rect width="4.75419" height="162.821" rx="2.37709" transform="matrix(0.992083 0.125584 -0.699212 0.714915 915.846 81)" fill="white"/>
<rect width="4.75419" height="162.821" rx="2.37709" transform="matrix(0.992083 0.125584 -0.699212 0.714915 802.406 81)" fill="white"/>
<rect width="4.75419" height="162.821" rx="2.37709" transform="matrix(0.992083 0.125584 -0.699212 0.714915 860.406 81)" fill="white"/>
<rect width="4.75419" height="162.821" rx="2.37709" transform="matrix(0.992083 0.125584 -0.699212 0.714915 918.406 81)" fill="white"/>
<rect width="4.75419" height="162.821" rx="2.37709" transform="matrix(0.992083 0.125584 -0.699212 0.714915 976.406 81)" fill="white"/>
<rect width="4.75419" height="162.821" rx="2.37709" transform="matrix(0.992083 0.125584 -0.699212 0.714915 1034.41 81)" fill="white"/>
<rect width="4.75419" height="162.821" rx="2.37709" transform="matrix(0.992083 0.125584 -0.699212 0.714915 1092.41 81)" fill="white"/>
<rect width="4.75419" height="162.821" rx="2.37709" transform="matrix(0.992083 0.125584 -0.699212 0.714915 1150.41 81)" fill="white"/>
<rect width="4.75419" height="162.821" rx="2.37709" transform="matrix(0.992083 0.125584 -0.699212 0.714915 1208.41 81)" fill="white"/>
<rect width="4.75419" height="162.821" rx="2.37709" transform="matrix(0.992083 0.125584 -0.699212 0.714915 217.286 81)" fill="white"/>
<rect width="4.75419" height="162.821" rx="2.37709" transform="matrix(0.992083 0.125584 -0.699212 0.714915 275.286 81)" fill="white"/>
<rect width="4.75419" height="162.821" rx="2.37709" transform="matrix(0.992083 0.125584 -0.699212 0.714915 333.286 81)" fill="white"/>
<rect width="4.75419" height="162.821" rx="2.37709" transform="matrix(0.992083 0.125584 -0.699212 0.714915 391.286 81)" fill="white"/>
<rect width="4.75419" height="162.821" rx="2.37709" transform="matrix(0.992083 0.125584 -0.699212 0.714915 449.286 81)" fill="white"/>
<rect width="4.75419" height="162.821" rx="2.37709" transform="matrix(0.992083 0.125584 -0.699212 0.714915 507.286 81)" fill="white"/>
<rect width="4.75419" height="162.821" rx="2.37709" transform="matrix(0.992083 0.125584 -0.699212 0.714915 565.286 81)" fill="white"/>
<rect width="4.75419" height="162.821" rx="2.37709" transform="matrix(0.992083 0.125584 -0.699212 0.714915 623.286 81)" fill="white"/>
<rect width="4.75419" height="162.821" rx="2.37709" transform="matrix(0.992083 0.125584 -0.699212 0.714915 509.846 81)" fill="white"/>
<rect width="4.75419" height="162.821" rx="2.37709" transform="matrix(0.992083 0.125584 -0.699212 0.714915 567.846 81)" fill="white"/>
<rect width="4.75419" height="162.821" rx="2.37709" transform="matrix(0.992083 0.125584 -0.699212 0.714915 625.846 81)" fill="white"/>
<rect width="4.75419" height="162.821" rx="2.37709" transform="matrix(0.992083 0.125584 -0.699212 0.714915 683.846 81)" fill="white"/>
<rect width="4.75419" height="162.821" rx="2.37709" transform="matrix(0.992083 0.125584 -0.699212 0.714915 741.846 81)" fill="white"/>
<rect width="4.75419" height="162.821" rx="2.37709" transform="matrix(0.992083 0.125584 -0.699212 0.714915 799.846 81)" fill="white"/>
<rect width="4.75419" height="162.821" rx="2.37709" transform="matrix(0.992083 0.125584 -0.699212 0.714915 857.846 81)" fill="white"/>
<rect width="4.75419" height="162.821" rx="2.37709" transform="matrix(0.992083 0.125584 -0.699212 0.714915 915.846 81)" fill="white"/>
<rect width="4.75419" height="162.821" rx="2.37709" transform="matrix(0.992083 0.125584 -0.699212 0.714915 1972.65 81)" fill="white"/>
<rect width="4.75419" height="162.821" rx="2.37709" transform="matrix(0.992083 0.125584 -0.699212 0.714915 2030.65 81)" fill="white"/>
<rect width="4.75419" height="162.821" rx="2.37709" transform="matrix(0.992083 0.125584 -0.699212 0.714915 2088.65 81)" fill="white"/>
<rect width="4.75419" height="162.821" rx="2.37709" transform="matrix(0.992083 0.125584 -0.699212 0.714915 2146.65 81)" fill="white"/>
<rect width="4.75419" height="162.821" rx="2.37709" transform="matrix(0.992083 0.125584 -0.699212 0.714915 2204.65 81)" fill="white"/>
<rect width="4.75419" height="162.821" rx="2.37709" transform="matrix(0.992083 0.125584 -0.699212 0.714915 2262.65 81)" fill="white"/>
<rect width="4.75419" height="162.821" rx="2.37709" transform="matrix(0.992083 0.125584 -0.699212 0.714915 2320.65 81)" fill="white"/>
<rect width="4.75419" height="162.821" rx="2.37709" transform="matrix(0.992083 0.125584 -0.699212 0.714915 2378.65 81)" fill="white"/>
<rect width="4.75419" height="162.821" rx="2.37709" transform="matrix(0.992083 0.125584 -0.699212 0.714915 2265.21 81)" fill="white"/>
<rect width="4.75419" height="162.821" rx="2.37709" transform="matrix(0.992083 0.125584 -0.699212 0.714915 2323.21 81)" fill="white"/>
<rect width="4.75419" height="162.821" rx="2.37709" transform="matrix(0.992083 0.125584 -0.699212 0.714915 2381.21 81)" fill="white"/>
<rect width="4.75419" height="162.821" rx="2.37709" transform="matrix(0.992083 0.125584 -0.699212 0.714915 2439.21 81)" fill="white"/>
<rect width="4.75419" height="162.821" rx="2.37709" transform="matrix(0.992083 0.125584 -0.699212 0.714915 2497.21 81)" fill="white"/>
<rect width="4.75419" height="162.821" rx="2.37709" transform="matrix(0.992083 0.125584 -0.699212 0.714915 2555.21 81)" fill="white"/>
<rect width="4.75419" height="162.821" rx="2.37709" transform="matrix(0.992083 0.125584 -0.699212 0.714915 2613.21 81)" fill="white"/>
<rect width="4.75419" height="162.821" rx="2.37709" transform="matrix(0.992083 0.125584 -0.699212 0.714915 2671.21 81)" fill="white"/>
<rect width="4.75419" height="162.821" rx="2.37709" transform="matrix(0.992083 0.125584 -0.699212 0.714915 2265.21 81)" fill="white"/>
<rect width="4.75419" height="162.821" rx="2.37709" transform="matrix(0.992083 0.125584 -0.699212 0.714915 2323.21 81)" fill="white"/>
<rect width="4.75419" height="162.821" rx="2.37709" transform="matrix(0.992083 0.125584 -0.699212 0.714915 2381.21 81)" fill="white"/>
<rect width="4.75419" height="162.821" rx="2.37709" transform="matrix(0.992083 0.125584 -0.699212 0.714915 2439.21 81)" fill="white"/>
<rect width="4.75419" height="162.821" rx="2.37709" transform="matrix(0.992083 0.125584 -0.699212 0.714915 2497.21 81)" fill="white"/>
<rect width="4.75419" height="162.821" rx="2.37709" transform="matrix(0.992083 0.125584 -0.699212 0.714915 2555.21 81)" fill="white"/>
<rect width="4.75419" height="162.821" rx="2.37709" transform="matrix(0.992083 0.125584 -0.699212 0.714915 2613.21 81)" fill="white"/>
<rect width="4.75419" height="162.821" rx="2.37709" transform="matrix(0.992083 0.125584 -0.699212 0.714915 2671.21 81)" fill="white"/>
<rect width="4.75419" height="162.821" rx="2.37709" transform="matrix(0.992083 0.125584 -0.699212 0.714915 2557.77 81)" fill="white"/>
<rect width="4.75419" height="162.821" rx="2.37709" transform="matrix(0.992083 0.125584 -0.699212 0.714915 2615.77 81)" fill="white"/>
<rect width="4.75419" height="162.821" rx="2.37709" transform="matrix(0.992083 0.125584 -0.699212 0.714915 2673.77 81)" fill="white"/>
<rect width="4.75419" height="162.821" rx="2.37709" transform="matrix(0.992083 0.125584 -0.699212 0.714915 2731.77 81)" fill="white"/>
<rect width="4.75419" height="162.821" rx="2.37709" transform="matrix(0.992083 0.125584 -0.699212 0.714915 2789.76 81)" fill="white"/>
<rect width="4.75419" height="162.821" rx="2.37709" transform="matrix(0.992083 0.125584 -0.699212 0.714915 2847.76 81)" fill="white"/>
<rect width="4.75419" height="162.821" rx="2.37709" transform="matrix(0.992083 0.125584 -0.699212 0.714915 40.9648 81)" fill="white"/>
<rect width="4.75419" height="162.821" rx="2.37709" transform="matrix(0.992083 0.125584 -0.699212 0.714915 98.9648 81)" fill="white"/>
<rect width="4.75419" height="162.821" rx="2.37709" transform="matrix(0.992083 0.125584 -0.699212 0.714915 156.965 81)" fill="white"/>
<rect width="4.75419" height="162.821" rx="2.37709" transform="matrix(0.992083 0.125584 -0.699212 0.714915 214.965 81)" fill="white"/>
<rect width="4.75419" height="162.821" rx="2.37709" transform="matrix(0.992083 0.125584 -0.699212 0.714915 272.965 81)" fill="white"/>
<rect width="4.75419" height="162.821" rx="2.37709" transform="matrix(0.992083 0.125584 -0.699212 0.714915 330.965 81)" fill="white"/>
<rect width="4.75419" height="162.821" rx="2.37709" transform="matrix(0.992083 0.125584 -0.699212 0.714915 217.528 81)" fill="white"/>
<rect width="4.75419" height="162.821" rx="2.37709" transform="matrix(0.992083 0.125584 -0.699212 0.714915 275.528 81)" fill="white"/>
<rect width="4.75419" height="162.821" rx="2.37709" transform="matrix(0.992083 0.125584 -0.699212 0.714915 333.528 81)" fill="white"/>
<rect width="4.75419" height="162.821" rx="2.37709" transform="matrix(0.992083 0.125584 -0.699212 0.714915 391.527 81)" fill="white"/>
<rect width="4.75419" height="162.821" rx="2.37709" transform="matrix(0.992083 0.125584 -0.699212 0.714915 449.523 81)" fill="white"/>
<rect width="4.75419" height="162.821" rx="2.37709" transform="matrix(0.992083 0.125584 -0.699212 0.714915 507.523 81)" fill="white"/>
<rect width="4.75419" height="162.821" rx="2.37709" transform="matrix(0.992083 0.125584 -0.699212 0.714915 565.523 81)" fill="white"/>
<rect width="4.75419" height="162.821" rx="2.37709" transform="matrix(0.992083 0.125584 -0.699212 0.714915 623.523 81)" fill="white"/>
<rect width="4.75419" height="162.821" rx="2.37709" transform="matrix(0.992083 0.125584 -0.699212 0.714915 1094.97 81)" fill="white"/>
<rect width="4.75419" height="162.821" rx="2.37709" transform="matrix(0.992083 0.125584 -0.699212 0.714915 1152.97 81)" fill="white"/>
<rect width="4.75419" height="162.821" rx="2.37709" transform="matrix(0.992083 0.125584 -0.699212 0.714915 1210.97 81)" fill="white"/>
<rect width="4.75419" height="162.821" rx="2.37709" transform="matrix(0.992083 0.125584 -0.699212 0.714915 1268.97 81)" fill="white"/>
<rect width="4.75419" height="162.821" rx="2.37709" transform="matrix(0.992083 0.125584 -0.699212 0.714915 1326.97 81)" fill="white"/>
<rect width="4.75419" height="162.821" rx="2.37709" transform="matrix(0.992083 0.125584 -0.699212 0.714915 1384.97 81)" fill="white"/>
<rect width="4.75419" height="162.821" rx="2.37709" transform="matrix(0.992083 0.125584 -0.699212 0.714915 1442.97 81)" fill="white"/>
<rect width="4.75419" height="162.821" rx="2.37709" transform="matrix(0.992083 0.125584 -0.699212 0.714915 1500.97 81)" fill="white"/>
<rect width="4.75419" height="162.821" rx="2.37709" transform="matrix(0.992083 0.125584 -0.699212 0.714915 1387.53 81)" fill="white"/>
<rect width="4.75419" height="162.821" rx="2.37709" transform="matrix(0.992083 0.125584 -0.699212 0.714915 1445.53 81)" fill="white"/>
<rect width="4.75419" height="162.821" rx="2.37709" transform="matrix(0.992083 0.125584 -0.699212 0.714915 1503.53 81)" fill="white"/>
<rect width="4.75419" height="162.821" rx="2.37709" transform="matrix(0.992083 0.125584 -0.699212 0.714915 1561.53 81)" fill="white"/>
<rect width="4.75419" height="162.821" rx="2.37709" transform="matrix(0.992083 0.125584 -0.699212 0.714915 1619.53 81)" fill="white"/>
<rect width="4.75419" height="162.821" rx="2.37709" transform="matrix(0.992083 0.125584 -0.699212 0.714915 1677.53 81)" fill="white"/>
<rect width="4.75419" height="162.821" rx="2.37709" transform="matrix(0.992083 0.125584 -0.699212 0.714915 1735.53 81)" fill="white"/>
<rect width="4.75419" height="162.821" rx="2.37709" transform="matrix(0.992083 0.125584 -0.699212 0.714915 1793.53 81)" fill="white"/>
<rect width="4.75419" height="162.821" rx="2.37709" transform="matrix(0.992083 0.125584 -0.699212 0.714915 1094.97 81)" fill="white"/>
<rect width="4.75419" height="162.821" rx="2.37709" transform="matrix(0.992083 0.125584 -0.699212 0.714915 1152.97 81)" fill="white"/>
<rect width="4.75419" height="162.821" rx="2.37709" transform="matrix(0.992083 0.125584 -0.699212 0.714915 1210.97 81)" fill="white"/>
<rect width="4.75419" height="162.821" rx="2.37709" transform="matrix(0.992083 0.125584 -0.699212 0.714915 1268.97 81)" fill="white"/>
<rect width="4.75419" height="162.821" rx="2.37709" transform="matrix(0.992083 0.125584 -0.699212 0.714915 1326.97 81)" fill="white"/>
<rect width="4.75419" height="162.821" rx="2.37709" transform="matrix(0.992083 0.125584 -0.699212 0.714915 1384.97 81)" fill="white"/>
<rect width="4.75419" height="162.821" rx="2.37709" transform="matrix(0.992083 0.125584 -0.699212 0.714915 1442.97 81)" fill="white"/>
<rect width="4.75419" height="162.821" rx="2.37709" transform="matrix(0.992083 0.125584 -0.699212 0.714915 1500.97 81)" fill="white"/>
<rect width="4.75419" height="162.821" rx="2.37709" transform="matrix(0.992083 0.125584 -0.699212 0.714915 1387.53 81)" fill="white"/>
<rect width="4.75419" height="162.821" rx="2.37709" transform="matrix(0.992083 0.125584 -0.699212 0.714915 1445.53 81)" fill="white"/>
<rect width="4.75419" height="162.821" rx="2.37709" transform="matrix(0.992083 0.125584 -0.699212 0.714915 1503.53 81)" fill="white"/>
<rect width="4.75419" height="162.821" rx="2.37709" transform="matrix(0.992083 0.125584 -0.699212 0.714915 1561.53 81)" fill="white"/>
<rect width="4.75419" height="162.821" rx="2.37709" transform="matrix(0.992083 0.125584 -0.699212 0.714915 1619.53 81)" fill="white"/>
<rect width="4.75419" height="162.821" rx="2.37709" transform="matrix(0.992083 0.125584 -0.699212 0.714915 1677.53 81)" fill="white"/>
<rect width="4.75419" height="162.821" rx="2.37709" transform="matrix(0.992083 0.125584 -0.699212 0.714915 1735.53 81)" fill="white"/>
<rect width="4.75419" height="162.821" rx="2.37709" transform="matrix(0.992083 0.125584 -0.699212 0.714915 1793.53 81)" fill="white"/>
<rect width="4.75419" height="162.821" rx="2.37709" transform="matrix(0.992083 0.125584 -0.699212 0.714915 1680.09 81)" fill="white"/>
<rect width="4.75419" height="162.821" rx="2.37709" transform="matrix(0.992083 0.125584 -0.699212 0.714915 1738.09 81)" fill="white"/>
<rect width="4.75419" height="162.821" rx="2.37709" transform="matrix(0.992083 0.125584 -0.699212 0.714915 1796.09 81)" fill="white"/>
<rect width="4.75419" height="162.821" rx="2.37709" transform="matrix(0.992083 0.125584 -0.699212 0.714915 1854.09 81)" fill="white"/>
<rect width="4.75419" height="162.821" rx="2.37709" transform="matrix(0.992083 0.125584 -0.699212 0.714915 1912.09 81)" fill="white"/>
<rect width="4.75419" height="162.821" rx="2.37709" transform="matrix(0.992083 0.125584 -0.699212 0.714915 1970.09 81)" fill="white"/>
<rect width="4.75419" height="162.821" rx="2.37709" transform="matrix(0.992083 0.125584 -0.699212 0.714915 2028.09 81)" fill="white"/>
<rect width="4.75419" height="162.821" rx="2.37709" transform="matrix(0.992083 0.125584 -0.699212 0.714915 2086.09 81)" fill="white"/>
<rect width="4.75419" height="162.821" rx="2.37709" transform="matrix(0.992083 0.125584 -0.699212 0.714915 1972.65 81)" fill="white"/>
<rect width="4.75419" height="162.821" rx="2.37709" transform="matrix(0.992083 0.125584 -0.699212 0.714915 2030.65 81)" fill="white"/>
<rect width="4.75419" height="162.821" rx="2.37709" transform="matrix(0.992083 0.125584 -0.699212 0.714915 2088.65 81)" fill="white"/>
<rect width="4.75419" height="162.821" rx="2.37709" transform="matrix(0.992083 0.125584 -0.699212 0.714915 2146.65 81)" fill="white"/>
<rect width="4.75419" height="162.821" rx="2.37709" transform="matrix(0.992083 0.125584 -0.699212 0.714915 2204.65 81)" fill="white"/>
<rect width="4.75419" height="162.821" rx="2.37709" transform="matrix(0.992083 0.125584 -0.699212 0.714915 2262.65 81)" fill="white"/>
<rect width="4.75419" height="162.821" rx="2.37709" transform="matrix(0.992083 0.125584 -0.699212 0.714915 2320.65 81)" fill="white"/>
<rect width="4.75419" height="162.821" rx="2.37709" transform="matrix(0.992083 0.125584 -0.699212 0.714915 2378.65 81)" fill="white"/>
</g>
<defs>
<clipPath id="clip0_379_2">
<rect width="2780" height="258" fill="white"/>
</clipPath>
</defs>
</svg>
