<svg width="2048" height="1024" viewBox="0 0 2048 1024" fill="none" xmlns="http://www.w3.org/2000/svg">
<g clip-path="url(#clip0_385_2)">
<path d="M2076.95 42.6484C2077.08 63.6208 2076.94 91.1123 2076.75 112.005C2076.69 118.553 2076.42 115.238 2076.37 119.758C2076.27 128.598 2076.4 136.834 2076.28 145.57C2076.23 148.466 2075.81 144.862 2075.78 147.897C2075.59 164.533 2075.7 180.272 2075.61 197.124C2075.17 280.134 2075.01 361.731 2074.82 445.756C2074.76 473.461 2074.38 507.141 2074.55 535.757C2074.57 539.098 2074.93 537.106 2074.96 537.742C2075.43 547.711 2074.69 544.396 2074.59 550.905C2074.2 576.739 2074.16 605.466 2074.3 630.327C2074.37 640.904 2075.1 630.299 2074.69 640.949C2074.66 641.689 2074.27 639.005 2074.23 641.906C2074.13 648.484 2074.2 660.964 2074.17 666.062C2074.11 675.888 2074.11 677.513 2074.11 686.807C2074.1 699.511 2073.91 714.621 2073.99 728.252C2074.01 731.162 2074.42 727.31 2074.48 731.95C2074.55 736.594 2074.52 748.881 2074.42 753.023C2074.33 757.166 2074.01 755.402 2073.94 756.135C2073.33 762.167 2074.18 776.379 2074.2 778.207C2074.55 811.548 2074.07 840.139 2074.07 871.435C2074.07 895.194 2074.23 920.598 2074.21 943.205C2074.18 970.138 2073.97 992.965 2074 1019.13C2074.01 1021.89 2074.48 1018.66 2074.48 1022.03C2074.49 1022.35 2074.49 1022.68 2074.49 1023L2074.49 1025.48L2072 1025.49C2036.5 1025.54 2001.24 1025.49 1965.88 1025.17C1962.3 1025.14 1966.92 1024.72 1963.34 1024.67C1941.45 1024.33 1906.83 1023.51 1893.83 1025.31C1879 1025.24 1861 1025.17 1847.74 1024.8C1839.19 1024.57 1847.49 1024.12 1836.99 1024.31C1834.62 1024.35 1837.7 1024.75 1834.15 1024.78C1819.19 1024.93 1802.85 1024.8 1788.05 1025C1785.04 1025.05 1785.86 1025.4 1785.01 1025.47C1777.84 1025.98 1765.91 1025.13 1763.31 1025.07C1743.5 1024.6 1729.03 1024.79 1710.58 1024.77C1706.3 1024.77 1711.36 1025.25 1707.24 1025.26C1685.87 1025.33 1663.74 1025.29 1642.81 1025.08C1638.16 1025.03 1642.44 1024.62 1640.21 1024.58C1630.41 1024.39 1628.23 1025.16 1618.83 1024.99C1616.84 1024.96 1617.96 1024.61 1617.6 1024.57C1611.94 1023.98 1607.02 1024.82 1605.56 1024.84C1587.14 1025.1 1575.37 1024.21 1557.58 1024.34C1555.45 1024.35 1560.25 1024.79 1554.27 1024.81C1514.4 1024.93 1472.24 1024.81 1432.78 1024.46C1426.65 1024.41 1431.03 1024.08 1430.64 1024.04C1424.35 1023.4 1420.28 1024.25 1418.28 1024.28C1402.5 1024.51 1387.75 1023.8 1377.03 1024.81C1310.2 1024.46 1243.67 1025.03 1177.38 1024.12C1176.54 1024.11 1178.05 1023.69 1176.37 1023.68C1156.13 1023.44 1160.01 1024.09 1146.62 1024.89C1143.24 1025.09 1132.98 1024.13 1132.07 1024.06C1128.76 1023.8 1132.19 1023.17 1131.08 1023.12C1121.92 1022.73 1123.41 1024.79 1111.04 1024.79C1110.65 1024.79 1112.28 1024.41 1111.24 1024.37C1108.01 1024.25 1104.82 1024.4 1101.66 1024.27C1094.44 1023.97 1091.86 1022.97 1080.83 1023.55C1079.43 1023.63 1081.57 1024.79 1070.52 1024.74C1066.12 1024.72 1046.63 1024.74 1041.17 1024.66C1035.71 1024.58 1039.46 1024.21 1039.07 1024.19C1024.37 1023.69 1029.94 1023.49 1022.58 1022.75C1015.22 1022.01 1017.26 1023.77 1014.26 1023.96C1011.25 1024.16 1000.47 1023.75 997.824 1023.6C995.177 1023.46 998.479 1023.22 996.125 1023.14C980.518 1022.61 989.275 1024.01 984.133 1024.29C972.009 1024.95 962.566 1023.65 951.467 1023.52C948.464 1023.49 950.915 1023.78 948.241 1023.81C937.649 1023.92 931.279 1023.51 919.23 1023.88C917.259 1023.94 907.518 1024.72 901.212 1024.15C900.319 1024.07 902.857 1023.74 898.343 1023.67C898.23 1023.67 898.116 1023.67 898 1023.67L896.214 1023.67L897.564 1022.5C902.779 1018.12 911.795 1010.41 917.115 1005.66C921.109 1002.1 916.122 1005.71 921.324 1001.43C923.635 999.527 919.645 1003.39 923.971 999.799C928.275 996.223 939.083 986.852 943.191 983.282C947.292 979.719 944.779 981.359 945.093 981.051C947 979.194 954.756 972.223 955.454 971.62C990.565 941.169 1023.42 913.638 1057.49 883.855C1060.16 881.518 1058.1 882.743 1058.5 882.383C1067.58 874.292 1061.07 881.423 1067.74 876.153C1066.25 876.301 1070.14 873.139 1076.55 867.463C1079.64 864.728 1077.72 865.945 1077.99 865.672C1082.28 861.282 1085.93 858.991 1086.85 858.375C1090.24 856.097 1093.19 852.769 1095.49 851.214C1097.79 849.659 1093.32 854.178 1099.52 848.799C1101.06 847.057 1095.92 850.435 1100.55 846.255C1118.01 830.483 1151.64 802.225 1165.99 789.896C1180.3 777.592 1184.88 773.558 1193.27 766.444C1208.43 753.594 1202.53 757.905 1211.68 749.622C1220.85 741.316 1217.27 746.371 1218.83 745.448C1220.36 744.546 1221.58 743.051 1223.34 741.761C1225.09 740.477 1221.69 743.707 1225.58 740.425C1229.48 737.14 1239.64 727.597 1240.79 726.164C1243.21 723.133 1237.98 726.682 1248.35 718.056C1248.94 717.561 1247.3 719.501 1249.57 717.588C1267.59 702.385 1286.13 686.368 1304.11 671.157C1306.58 669.066 1304.67 671.288 1306.12 670.075C1321.14 657.439 1315.36 661.479 1322.96 653.826C1321.84 656.222 1326.77 652.828 1338.04 643.084C1344.82 637.226 1343.34 637.879 1347.5 633.838C1348.75 632.625 1353.76 628.722 1354.48 627.804C1356.87 624.778 1351.83 628.071 1363.65 618.264C1364.17 617.835 1362.81 619.538 1364.58 618.033C1376.07 608.302 1376.93 606.551 1389.18 595.834C1398.77 587.435 1416.23 572.942 1427.25 563.496C1427.82 564.613 1438.01 555.428 1441.67 551.155C1448.81 545.014 1456.48 538.317 1463.44 532.444C1465.84 530.423 1464.51 532.036 1464.84 531.806C1469.81 528.289 1472.37 524.993 1473.89 523.638C1490.36 508.977 1504.34 497.689 1519.86 483.465C1520.41 482.96 1520.77 481.531 1525.43 478.316C1525.73 478.11 1520.73 482.947 1528.23 476.492C1535.74 470.037 1550.14 458.167 1560.28 448.879C1562.73 446.632 1568.64 440.61 1574.1 436.596C1574.83 436.062 1574.24 436.889 1575.31 436.141C1578.76 433.718 1579.94 431.575 1584.14 428.894C1588.35 426.213 1596.46 419.908 1606.61 410.461C1606.94 410.161 1608.98 407.504 1612.28 404.66C1617.55 400.12 1625.11 393.763 1630.6 389.006C1633.23 386.728 1631.27 387.868 1631.73 387.467C1649.26 371.984 1662.09 361.374 1681.14 345.101C1684.63 342.119 1694.24 333.049 1701.26 327.572C1708.96 321.557 1702.72 329.678 1719.37 314.622C1726.09 308.551 1733.05 299.078 1746.23 289.456C1769.87 268.558 1792.38 249.99 1815.99 228.927C1817.05 227.98 1819.97 224.485 1822.51 222.304C1826.28 219.067 1828.56 217.541 1831.25 215.238C1842.55 205.594 1852.64 196.477 1863.5 187.139C1867.63 183.593 1866.42 185.103 1871.34 180.874C1876.25 176.647 1879.22 173.468 1886 167.889C1891.13 163.677 1896.77 160.053 1903.5 154.374C1903.14 153.448 1907.73 149.505 1915.69 142.284C1917.22 140.896 1915.33 142.1 1916.05 141.43C1918.95 138.701 1921.91 136.496 1924.64 133.886C1925.31 133.252 1925.13 132.982 1925.66 132.45C1930.19 127.915 1938.61 121.572 1940.06 120.484C1945.61 116.31 1947.79 113.878 1951.93 110.543C1956.06 107.213 1950.21 112.58 1954.97 108.611C1964.84 100.384 1977.28 89.5464 1987.16 81.0219C1991.09 77.6191 1988.13 79.6206 1988.69 79.1261C1996.75 72.002 2005.28 65.2231 2009.24 60.6766C2016.31 57.4531 2014 56.269 2025.92 46.5349C2026.86 45.7687 2028.71 45.5446 2025.29 48.7042C2021.87 51.8632 2016.32 56.2343 2011.6 60.6374C2010.48 61.6796 2004.5 68.1448 2003.63 68.9709C1996.86 75.4424 1994.84 75.1376 1994.41 75.3972C1989.56 78.3761 1982.16 86.1697 1980.07 88.0683C1970.55 96.7539 1962.12 103.755 1954.12 110.989C1948.89 115.719 1949.04 116.938 1944.83 120.538C1930.84 132.505 1925.06 135.637 1912.75 147.916C1910.11 150.548 1913.63 148.969 1902.98 157.029C1902.31 157.535 1894.31 163.406 1890.32 167.528C1889.82 168.046 1890.04 168.276 1889.35 168.916C1884.66 173.201 1881.3 175.775 1876.15 180.392C1871 185.008 1864.84 190.586 1858.8 195.667C1855.16 198.73 1850.15 202.267 1848.34 203.646C1843.2 207.531 1838.44 212.568 1835.09 214.785C1831.72 217.022 1837.14 211.29 1828.96 217.929C1829.21 218.82 1829.1 220.058 1829.18 221.108C1811.71 236.188 1794.36 250.843 1776.87 266.024C1774.71 267.907 1777.22 266.327 1774.91 268.354C1765.14 276.905 1756.35 284.083 1746.25 292.992C1738.44 299.889 1730.11 307.73 1721.94 314.953C1716.28 318.582 1704.27 329.413 1695.32 337.034C1692.19 339.705 1692.23 339.33 1689.96 341.182C1681.41 348.173 1685.88 345.43 1683.68 347.512C1674.23 356.442 1672.13 355.715 1660.59 365.771C1659.97 366.303 1653.15 373.567 1652.16 374.509C1645.87 380.503 1650.84 375.179 1646.68 378.676C1639.09 385.06 1633.72 389.383 1625.12 397.224C1622.61 399.511 1616.88 405.319 1611.58 409.256C1610.88 409.774 1611.02 409.205 1610.48 409.646C1600.71 417.658 1601.16 418.681 1595.94 423.675C1590.72 428.67 1581.81 435.408 1579.96 436.732C1575.11 440.2 1583.24 433.579 1583.45 433.328C1585.88 430.374 1579.81 435.776 1575.08 439.8C1573.71 439.599 1567.19 445.33 1570.18 443.974C1570.51 443.817 1574.1 440.58 1575.08 439.8C1571.63 444.142 1564.49 450.488 1555.89 456.664C1551.87 459.554 1555.05 456.105 1543.84 466.061C1538.76 470.579 1541.21 469.402 1536.8 473.48C1526.72 482.795 1512.8 493.952 1502.18 503.287C1498.32 506.675 1502.36 503.7 1499.73 506.026C1492.77 512.199 1486.36 517.348 1479.39 523.581C1478.76 524.146 1480.6 523.103 1478.4 525.01C1461.77 539.469 1447.08 551.829 1429.68 566.883C1421.27 574.156 1406.38 587.337 1397.64 594.84C1382.5 607.846 1363.54 623.463 1350.73 634.734C1342.38 642.083 1344.5 640.798 1341.08 644.129C1334.48 650.559 1321.53 660.475 1319.78 661.795C1319.72 661.835 1326.9 655.498 1322.9 658.68C1320.36 660.29 1319.86 661.723 1319.78 661.795C1318.62 662.663 1304.11 675.105 1301.29 677.649C1299.75 679.031 1300.88 678.571 1300.08 679.287C1280.98 696.282 1261.67 713.117 1241.95 729.947C1241.6 730.24 1241.83 729.46 1241.01 730.153C1229.53 739.829 1222.61 746.524 1213.46 754.866C1204.31 763.206 1196.81 769.55 1190.78 773.779C1183.78 779.963 1173.43 788.481 1167.47 793.375C1161.5 798.269 1161.25 799.616 1160.75 800.073C1145.1 814.328 1135.53 821.966 1118.88 836.276C1110.96 843.078 1095.38 856.721 1086.9 864.187C1080.19 870.089 1075.99 873.459 1069.85 878.941C1069.02 879.683 1070.12 879.233 1069.87 879.466C1063.22 885.82 1065.96 882.231 1064.41 883.347C1058.82 887.392 1055.4 889.93 1046.69 897.841C1044.68 899.665 1039.58 905.844 1035.89 909.14C1031.09 913.422 1032.61 911.473 1027.6 915.966C1027.17 916.351 1027.45 916.495 1024.3 919.204C1009.68 931.784 993.666 945.416 978.529 958.555C976.46 960.349 979.421 958.405 976.437 961.003C962.437 973.192 947.041 986.494 933.223 998.162C929.821 1001.03 931.717 998.96 930.923 999.519C926.052 1002.96 920.25 1009.11 919.211 1010.03C912.773 1015.74 906.68 1021.05 900.743 1026.17L898 1018.81C920.325 1018.84 940.696 1019.2 965.672 1018.92C967.51 1018.9 981.65 1017.99 987.959 1018.77C988.391 1018.82 994.632 1019.63 1000.15 1019.08C1000.49 1019.04 996.605 1018.63 1003.39 1018.67C1010.18 1018.71 1021.1 1018.44 1030.43 1018.89C1033.39 1019.04 1040.37 1019.84 1049.18 1019.2C1049.75 1019.15 1063.35 1017.71 1068.21 1018.71C1069 1018.87 1068.17 1019.92 1078.69 1019.38C1080.7 1019.28 1077.05 1019.04 1082.34 1018.9C1090.45 1018.67 1101.2 1018.95 1111.17 1018.48C1112.91 1018.4 1120.31 1017.68 1126.24 1018.23C1127.17 1018.31 1125.41 1018.66 1128.54 1018.7C1143.45 1018.89 1159.06 1018.66 1174.2 1018.9C1179.56 1018.99 1176.82 1019.56 1182.41 1019.71C1188 1019.86 1199.26 1020.01 1205.11 1019.75C1210.96 1019.49 1204.57 1018.58 1213.33 1018.51C1251.43 1018.19 1289.18 1018.72 1327.22 1018.8C1332.86 1018.81 1328.18 1018.49 1336.5 1018.48C1367.16 1018.46 1420.09 1018.15 1446.69 1018.84C1468 1019.4 1441.18 1019.82 1457.47 1020.04C1465.33 1020.15 1473.83 1019.09 1475.73 1019.06C1494.26 1018.72 1507.14 1019.19 1523.83 1019.05C1527.27 1019.02 1523.89 1018.59 1526.83 1018.57C1536.84 1018.5 1547.37 1018.69 1556.94 1018.65C1561.23 1018.64 1560.44 1018.31 1564.39 1018.33C1573.84 1018.39 1582.2 1018.53 1591.41 1018.83C1592.25 1018.86 1586.59 1019.27 1593.58 1019.28C1604.9 1019.31 1618.95 1019.61 1631.97 1019.3C1635.84 1019.2 1635.99 1018.46 1644.3 1018.97C1646.04 1019.08 1643.81 1019.98 1653.49 1019.2C1655.12 1019.07 1671.37 1018.03 1679.35 1018.7C1681.45 1018.88 1686.82 1019.61 1691.47 1019.5C1692.1 1019.48 1689.57 1019.08 1693.42 1019.04C1706.99 1018.91 1721.21 1018.95 1735.15 1018.82C1738.88 1018.79 1733.33 1018.38 1738.88 1018.34C1754.14 1018.23 1773.19 1018.34 1788.11 1018.47C1793.61 1018.52 1789.8 1018.86 1790.2 1018.9C1796.64 1019.51 1800.45 1018.68 1802.58 1018.64C1815.87 1018.35 1825.99 1018.74 1838.23 1018.63C1841.61 1018.61 1839.22 1018.22 1839.89 1018.18C1846.87 1017.84 1841.67 1018.54 1846.08 1018.62C1858.46 1018.84 1872.25 1018.81 1884.76 1018.76C1889.36 1018.74 1884.19 1018.29 1888.32 1018.27C1912.73 1018.2 1938.1 1018.24 1961.93 1018.49C1966.41 1018.54 1963.59 1018.89 1964.53 1018.97C1970.97 1019.52 1980.41 1018.76 1982.59 1018.69C1992.47 1018.36 1996.3 1018.67 2005.03 1018.61C2025.84 1018.47 2049.03 1018.45 2072 1018.47L2067.48 1023C2067.5 998.917 2067.59 975.077 2067.65 954.484C2067.82 902.054 2068.15 861.37 2068.06 811.372C2068.06 808.195 2067.59 811.399 2067.58 808.66C2067.47 773.294 2067.65 738.476 2067.52 703.039C2067.51 700.131 2067.07 704.323 2067.04 699.656C2066.97 690.082 2066.99 677.955 2067.13 668.275C2067.2 663.554 2067.58 669.887 2067.64 665.134C2067.78 654.069 2067.81 642.208 2067.74 630.841C2067.71 626.004 2067.26 633.302 2067.26 627.015C2067.21 584.189 2067.13 542.129 2067.72 498.852C2067.76 495.885 2068.67 493.281 2068.5 486.973C2068.24 486.498 2067.94 486.524 2067.67 486.316C2067.53 423.973 2067.84 362.265 2067.89 299.746C2067.89 297.11 2067.41 301.666 2067.41 296.563C2067.42 267.026 2067.28 238.344 2067.77 208.132C2067.81 205.134 2068.67 206.672 2068.54 197.838C2068.51 196.28 2068.4 182.975 2068.22 179.535C2068.19 179.068 2067.79 181.495 2067.78 177.208C2067.72 152.293 2067.81 126.184 2068.05 101.312C2068.09 97.298 2068.52 101.573 2068.55 98.7136C2068.77 78.4331 2068.45 56.3737 2068.84 36.9947C2069.1 24.0231 2069.83 28.8256 2070.55 21.9326C2070.65 20.9577 2070.67 12.9253 2071.09 12.5099C2072.15 11.4435 2073.3 15.3341 2074.43 13.7377C2074.67 13.4004 2074.41 2.64293 2075 9.01205C2075.04 9.457 2075.23 17.2562 2075.43 19.1772C2075.57 20.5146 2076 18.1045 2076.17 20.8333C2076.35 23.5619 2075.99 26.5602 2076.2 31.0841C2076.41 35.606 2076.89 33.6177 2076.95 42.6484ZM1140.62 815.417C1134.96 819.781 1135.14 821.601 1140.74 816.277C1141.02 816.018 1140.92 815.191 1140.62 815.417ZM1793.72 249.905C1786.23 255.515 1782.03 260.428 1787.35 256.504C1792.66 252.58 1796 248.195 1793.72 249.905ZM1866.6 186.198C1858.01 192.943 1858.1 195.671 1866.65 187.7C1867.15 187.237 1867.1 185.803 1866.6 186.198ZM2070.76 53.8985C2070.78 53.8 2070.8 48.026 2070.78 47.888C2070.3 44.8134 2070.26 56.3591 2070.76 53.8985ZM1938.89 122.944C1936.12 124.956 1928.93 131.623 1932.36 129.123C1935.12 127.111 1942.33 120.438 1938.89 122.944ZM951.167 1022.79C951.28 1022.81 955.419 1022.83 955.336 1022.71C955.055 1022.3 949.294 1022.42 951.167 1022.79ZM2062.32 16.0919C2044.03 31.8157 2031.82 40.0612 2051.81 23.0219C2055.43 19.9363 2044.43 30.1529 2049.11 26.3105C2057.67 19.2787 2062.52 13.6335 2071.45 6.68131C2073.07 5.42354 2063.36 15.1981 2062.29 16.1218C2062.3 16.1119 2062.31 16.1019 2062.32 16.0919ZM1136.34 816.749C1136.22 816.828 1131.87 820.564 1131.78 820.668C1129.75 823.058 1138.5 815.532 1136.34 816.749ZM1192.72 1023.72C1193.03 1023.76 1206.33 1023.8 1206.77 1023.76C1213.7 1022.98 1186.82 1022.9 1192.72 1023.72ZM1427.45 563.371C1431.86 558.918 1437.48 553.981 1441.64 551.173C1436.93 555.215 1432.19 559.305 1427.45 563.371Z" fill="black"/>
<path d="M655.281 161.328C648.442 172.913 639.746 188.254 633.21 199.956C631.162 203.623 632.455 201.913 631.051 204.451C628.305 209.413 625.551 213.923 622.855 218.838C621.963 220.467 623.482 218.675 622.538 220.378C617.364 229.712 612.224 238.401 606.896 247.808C580.655 294.139 554.622 339.545 527.839 386.317C519.008 401.738 508.536 420.638 499.214 436.451C498.126 438.297 498.445 437.006 498.215 437.344C494.615 442.649 496.322 441.18 494.321 444.845C486.373 459.391 477.189 475.365 469.093 489.105C465.647 494.949 468.414 488.692 465.355 494.814C465.141 495.239 466.341 493.943 465.447 495.576C463.418 499.277 459.355 506.174 457.747 509.022C454.649 514.511 454.125 515.412 451.148 520.577C447.082 527.638 442.404 536.13 437.956 543.657C437.005 545.263 437.893 542.923 436.346 545.467C434.797 548.012 430.886 554.854 429.64 557.203C428.393 559.551 429.232 558.729 429.059 559.173C427.653 562.828 422.363 570.301 421.759 571.306C410.757 589.648 402.005 605.771 391.966 623.156C384.345 636.352 376.059 650.385 368.828 662.954C360.214 677.929 353.081 690.718 344.657 705.234C343.769 706.766 344.398 704.732 343.312 706.603C331.773 726.48 320.405 746.272 309.239 766.25C308.119 768.253 309.957 765.899 308.86 767.913C302.135 780.241 291.737 799.886 286.007 806.205C281.313 814.476 275.604 824.51 271.665 832.059C269.492 836.224 271.414 833.612 269.8 836.367L268.698 838.258L270.896 838.266C271.435 838.27 272.156 838.284 273.129 838.312C274.648 838.355 272.672 838.75 274.951 838.784C284.546 838.929 295.029 838.801 304.521 839.005C306.452 839.047 305.925 839.401 306.472 839.465C311.069 839.981 318.723 839.128 320.391 839.066C333.096 838.603 342.375 838.785 354.211 838.774C356.957 838.771 353.711 839.247 356.354 839.261C370.061 839.329 384.26 839.288 397.682 839.077C400.668 839.029 397.922 838.624 399.349 838.581C405.639 838.393 407.034 839.158 413.067 838.993C414.339 838.959 413.622 838.612 413.855 838.574C417.485 837.976 420.64 838.823 421.574 838.842C433.389 839.097 440.94 838.213 452.353 838.338C453.719 838.354 450.64 838.793 454.478 838.811C480.048 838.932 507.091 838.811 532.401 838.46C536.336 838.406 533.527 838.077 533.774 838.036C537.81 837.401 540.422 838.252 541.705 838.284C551.827 838.515 561.283 837.801 568.161 838.814C611.032 838.463 653.706 839.032 696.222 838.124C696.763 838.114 695.794 837.695 696.872 837.675C709.858 837.44 707.364 838.091 715.957 838.888C718.121 839.088 724.706 838.126 725.288 838.056C727.411 837.796 725.21 837.173 725.92 837.123C731.802 836.728 730.843 838.789 738.778 838.789C739.026 838.786 737.984 838.407 738.65 838.369C740.718 838.25 742.77 838.401 744.794 838.271C749.428 837.968 751.078 836.967 758.155 837.55C759.051 837.625 757.683 838.795 764.767 838.739C767.591 838.716 780.092 838.736 783.595 838.661C787.095 838.585 784.692 838.208 784.941 838.192C794.37 837.694 790.795 837.487 795.519 836.75C800.242 836.015 798.932 837.767 800.858 837.963C802.786 838.158 809.699 837.747 811.398 837.604C813.096 837.461 810.978 837.222 812.488 837.141C822.498 836.612 816.882 838.011 820.18 838.289C827.957 838.948 834.014 837.648 841.133 837.52C843.059 837.486 841.487 837.782 843.203 837.81C849.996 837.915 854.082 837.51 861.811 837.882C863.075 837.942 869.323 838.724 873.368 838.15C873.941 838.068 872.313 837.744 875.209 837.671C879.534 837.562 887.327 837.492 891.976 837.6C895.409 837.68 891.474 838.214 895.795 838.048C897.715 837.974 894.156 837.662 897.764 837.549C901.352 837.436 910.528 837.449 914.019 837.46C917.504 837.471 915.596 837.876 915.878 837.903C917.582 838.059 924.27 838.255 924.861 838.254C954.674 838.304 982.165 837.621 1011.19 837.847C1013.47 837.864 1011.95 838.291 1012.3 838.298C1020.1 838.477 1013.95 837.342 1019.4 836.962C1018.61 837.828 1021.82 837.671 1027.32 837.766C1029.96 837.813 1028.52 838.148 1028.76 838.183C1032.69 838.692 1035.42 838.034 1036.13 837.899C1038.73 837.404 1041.56 837.989 1043.33 837.658C1045.09 837.33 1041.02 836.843 1046.29 836.849C1047.77 837.159 1043.86 837.97 1047.86 838.101C1054.07 838.305 1062.49 838.318 1071.1 838.257L1073.28 838.265L1072.19 836.371C1065.96 825.75 1059.41 814.875 1055.8 808.71C1049.69 798.256 1047.79 794.84 1044.16 788.785C1037.61 777.848 1040.47 781.593 1036.75 774.601C1033.02 767.589 1033.67 771.671 1032.82 770.842C1031.99 770.031 1031.66 768.808 1030.81 767.688C1029.97 766.573 1031.28 769.285 1029.59 766.489C1027.9 763.692 1023.92 755.671 1023.63 754.502C1023.02 752.029 1025.67 755.146 1021.12 747.787C1020.86 747.364 1021.33 748.957 1020.34 747.327C1012.52 734.378 1004.65 720.78 996.868 707.83C995.797 706.05 996.351 707.874 995.724 706.841C989.188 696.075 992.071 699.608 989.322 693.226C989.163 695.108 986.683 692.133 981.9 683.86C979.024 678.888 979.926 679.509 978.356 676.125C977.886 675.11 975.573 671.751 975.397 671.003C974.809 668.537 977.426 671.447 972.22 663.076C971.991 662.71 972.336 664.1 971.568 662.818C966.605 654.536 966.683 653.157 961.545 644.073C957.517 636.953 949.843 624.585 945.12 616.556C944.168 617.332 940.01 609.574 938.95 606.065C935.897 600.847 932.674 595.17 929.653 590.168C928.613 588.446 928.97 589.766 928.81 589.565C926.351 586.495 925.741 583.813 925.116 582.667C918.314 570.265 912.02 560.596 905.794 548.607C905.573 548.181 905.914 547.088 903.578 544.271C903.425 544.09 905.321 548.142 902.121 542.659C898.921 537.175 892.545 527.035 888.476 519.206C887.49 517.311 885.385 512.297 882.757 508.813C882.406 508.35 882.512 509.018 881.979 508.364C880.262 506.246 880.265 504.548 878.056 502.169C875.847 499.791 872.087 494.361 868.075 486.413C867.946 486.161 867.478 484.001 866.071 481.585C863.824 477.729 860.535 472.312 858.209 468.275C857.095 466.341 858.172 467.368 857.985 467.029C850.687 453.92 845.025 444.86 836.849 431.023C835.35 428.487 831.612 420.869 828.369 416.156C824.809 410.98 826.245 417.582 819.472 404.87C816.739 399.744 815.324 392.074 808.936 383.714C799.109 366.022 789.153 350.162 779.421 332.349C778.983 331.548 778.171 328.685 777.09 326.832C775.484 324.082 774.315 322.738 773.158 320.78C768.305 312.579 764.197 304.882 759.564 296.948C757.806 293.935 758.111 295.167 756.014 291.574C753.918 287.983 752.933 285.351 749.922 280.583C747.647 276.983 744.699 273.773 741.779 268.936C742.481 268.283 740.525 264.933 737.291 258.838C736.67 257.667 737.662 258.735 737.383 258.172C736.253 255.879 734.838 253.969 733.785 251.779C733.528 251.247 733.791 251.063 733.597 250.619C731.955 246.836 727.959 241.35 727.271 240.409C724.638 236.798 723.96 234.793 722.094 231.935C720.231 229.082 722.572 233.604 720.487 230.219C716.165 223.202 710.917 214.01 706.721 206.772C705.048 203.882 706.556 205.642 706.325 205.223C702.967 199.191 699.085 193.373 697.906 189.634C693.612 186.586 696.009 185.922 690.695 177.597C690.276 176.942 688.883 176.604 690.243 179.264C691.603 181.925 694.146 185.681 696.01 189.385C696.452 190.262 698.418 195.612 698.75 196.305C701.353 201.733 703.121 201.694 703.354 201.927C705.95 204.586 708.474 211.053 709.315 212.655C713.162 219.981 716.863 225.955 720.116 232.062C722.245 236.055 721.586 236.946 723.389 240.006C729.381 250.179 732.668 253.039 737.167 263.288C738.132 265.485 735.986 263.987 741.016 270.953C741.332 271.391 745.196 276.487 746.592 279.915C746.767 280.346 746.48 280.495 746.76 281.034C748.643 284.647 750.223 286.869 752.333 290.77C754.443 294.671 756.949 299.38 759.575 303.709C761.157 306.318 763.636 309.406 764.494 310.597C766.924 313.956 768.531 318.133 770.254 320.088C771.99 322.06 770.153 317.306 773.82 322.989C773.217 323.626 772.757 324.555 772.226 325.326C779.653 338.131 787.172 350.61 794.566 363.492C795.482 365.089 794.149 363.684 795.121 365.402C799.223 372.651 803.139 378.79 807.347 386.334C810.602 392.175 813.853 398.763 817.244 404.877C820.212 408.094 825.116 417.242 828.961 423.724C830.307 425.995 830.441 425.714 831.452 427.298C835.262 433.276 832.866 430.827 833.721 432.575C837.392 440.075 839.415 439.731 844.284 448.26C844.543 448.711 846.835 454.732 847.218 455.523C849.64 460.552 847.987 456.142 849.795 459.121C853.095 464.56 855.517 468.265 858.988 474.878C859.999 476.807 862.055 481.647 864.596 485.059C864.93 485.508 865.07 485.073 865.311 485.45C869.647 492.298 868.831 493.015 870.832 497.204C872.834 501.393 877.046 507.216 877.957 508.37C880.335 511.393 876.701 505.727 876.645 505.522C875.988 503.105 878.5 507.675 880.539 511.099C881.732 511.076 884.463 515.932 882.649 514.649C882.446 514.501 880.98 511.768 880.539 511.099C881.4 514.639 884.348 520.008 888.559 525.386C890.53 527.903 889.487 525.05 894.129 533.474C896.237 537.296 894.771 536.195 896.527 539.629C900.539 547.473 906.837 557.04 911.281 564.949C912.894 567.819 910.949 565.238 912.04 567.207C914.933 572.432 917.822 576.845 920.69 582.114C920.949 582.592 919.928 581.648 920.856 583.266C927.884 595.533 934.268 606.062 941.654 618.842C945.223 625.017 951.402 636.174 955.136 642.549C961.605 653.6 970 666.943 975.344 676.489C978.83 682.715 977.691 681.565 978.976 684.353C981.454 689.734 987.52 698.29 988.354 699.432C988.379 699.467 985.394 694.102 987.215 696.833C988.549 698.262 988.321 699.371 988.354 699.432C988.9 700.183 995.113 710.758 996.262 712.906C996.887 714.074 996.179 713.628 996.51 714.233C1004.41 728.61 1012.54 742.887 1021.01 757.2C1021.16 757.45 1021.32 756.849 1021.68 757.439C1026.66 765.681 1029.28 771.288 1032.98 778.324C1036.67 785.359 1039.91 790.76 1042.91 794.456C1045.83 799.691 1050.41 806.97 1053.06 811.153C1055.71 815.336 1055.31 816.359 1055.52 816.744C1060.15 825.56 1063.72 831.435 1068.1 838.734L1071.1 833.533C1068.01 833.584 1064.69 833.634 1060.94 833.654C1054.24 833.691 1040.96 833.568 1033.71 833.475C1027.98 833.4 1024.53 833.599 1019.25 833.472C1018.54 833.455 1019.26 833.076 1019.04 833.062C1013.15 832.609 1015.98 833.534 1014.76 833.7C1010.35 834.301 1007.63 834.621 1000.08 834.338C998.342 834.273 993.273 832.941 990.101 832.863C985.976 832.764 987.533 833.242 983.214 833.126C982.845 833.116 982.922 832.822 980.256 832.835C967.884 832.891 954.395 833.063 941.538 833.033C939.781 833.03 942.033 832.563 939.495 832.551C927.589 832.496 914.538 832.513 902.938 832.732C900.083 832.787 901.873 833.114 901.253 833.211C897.448 833.799 892.052 832.945 891.161 832.929C869.923 832.518 853.668 833.291 832.021 832.923C830.843 832.902 821.772 831.986 817.726 832.771C817.449 832.824 813.445 833.627 809.905 833.078C809.685 833.043 812.18 832.63 807.827 832.672C803.473 832.714 796.466 832.438 790.482 832.892C788.587 833.035 784.109 833.837 778.458 833.198C778.09 833.153 769.365 831.709 766.251 832.705C765.746 832.869 766.274 833.924 759.529 833.384C758.24 833.279 760.58 833.043 757.185 832.896C751.983 832.67 745.09 832.953 738.695 832.483C737.58 832.399 732.833 831.683 729.025 832.227C728.428 832.312 729.562 832.664 727.55 832.704C717.987 832.893 707.974 832.657 698.264 832.901C694.825 832.986 696.583 833.556 692.999 833.708C689.413 833.861 682.19 834.007 678.438 833.747C674.685 833.487 678.785 832.58 673.163 832.507C648.724 832.192 624.515 832.724 600.112 832.802C596.493 832.813 599.493 832.489 594.16 832.483C574.495 832.458 540.544 832.154 523.481 832.844C509.809 833.397 527.014 833.817 516.567 834.042C511.525 834.149 506.071 833.094 504.854 833.061C492.965 832.724 484.703 833.191 474.002 833.048C471.792 833.018 473.96 832.591 472.079 832.57C465.655 832.496 458.904 832.687 452.765 832.652C450.012 832.635 450.519 832.308 447.985 832.334C441.922 832.39 436.56 832.528 430.65 832.834C430.111 832.861 433.744 833.268 429.258 833.283C421.997 833.306 412.986 833.608 404.633 833.296C402.154 833.202 402.057 832.456 396.73 832.972C395.612 833.079 397.038 833.975 390.832 833.201C389.788 833.072 379.364 832.028 374.248 832.701C372.898 832.878 369.453 833.612 366.473 833.496C366.069 833.478 367.688 833.077 365.218 833.038C356.514 832.907 347.392 832.95 338.45 832.824C336.062 832.79 339.619 832.375 336.06 832.337C326.273 832.233 314.055 832.338 304.485 832.468C300.956 832.517 303.395 832.86 303.138 832.898C299.01 833.506 296.569 832.685 295.199 832.637C286.677 832.35 280.187 832.736 272.332 832.634C270.164 832.607 271.701 832.215 271.27 832.181C271.139 832.171 271.014 832.161 270.896 832.153L275.094 839.423C277.286 836.172 275.18 838.491 276.49 836.071C280.268 829.089 284.719 821.443 288.775 814.518C290.265 811.975 289.001 815.071 290.334 812.786C298.231 799.264 306.332 785.146 313.756 771.787C315.153 769.271 313.946 770.664 314.176 770.105C315.759 766.246 319.448 761.381 320.207 760.21C323.663 754.888 324.626 752.601 327.475 747.783C341.394 724.249 358.095 694.911 370.89 672.498C387.564 643.292 400.324 620.526 416.434 592.795C417.457 591.033 416.832 593.045 417.72 591.529C429.159 571.939 440.168 552.507 451.65 532.889C452.591 531.279 451.629 533.828 453.153 531.251C456.281 525.966 460.15 519.218 463.132 513.77C464.588 511.114 462.229 514.442 463.701 511.772C467.127 505.554 470.904 498.95 474.611 492.671C476.189 490 474.239 494.279 476.26 490.789C490.033 467.022 503.59 443.696 516.964 419.364C517.881 417.696 517.922 415.792 520.098 412.375C520.47 412.238 520.721 412.402 521.023 412.423C541.144 377.864 560.66 343.427 580.668 308.674C581.512 307.208 580.471 309.982 582.107 307.146C591.574 290.735 600.889 274.869 610.161 257.845C611.081 256.156 609.848 256.584 612.793 251.741C613.313 250.887 617.679 243.553 618.943 241.735C619.117 241.49 618.684 243.037 620.069 240.662C628.112 226.852 636.407 212.303 644.173 198.365C645.425 196.115 643.687 198.277 644.576 196.673C650.885 185.294 658.239 173.202 664.12 162.244C668.056 154.909 665.88 157.209 667.465 153.019C667.69 152.427 670.252 147.957 670.021 147.516C669.448 146.395 667.198 147.978 666.734 146.528C666.633 146.219 670.309 140.374 667.758 143.619C667.582 143.846 664.912 148.081 664.124 149.049C663.576 149.723 663.978 148.171 662.951 149.599C661.923 151.026 661.272 152.871 659.642 155.281C658.01 157.688 658.227 156.34 655.281 161.328ZM1064.97 829.991C1067.62 833.753 1066.66 835.086 1064.49 830.617C1064.39 830.4 1064.84 829.796 1064.97 829.991ZM788.107 349.974C791.672 354.829 792.881 358.863 790.327 355.459C787.775 352.056 787.022 348.494 788.107 349.974ZM757.479 295.962C761.429 301.763 760.143 303.777 756.767 297.072C756.57 296.682 757.249 295.623 757.479 295.962ZM657.035 170.673C657.05 170.609 658.885 167.392 658.946 167.325C660.343 165.854 656.674 172.287 657.035 170.673ZM727.127 242.342C728.468 244.09 731.326 249.703 729.66 247.531C728.319 245.782 725.458 240.164 727.127 242.342ZM841.325 836.79C841.253 836.813 838.598 836.833 838.651 836.707C838.832 836.301 842.527 836.416 841.325 836.79ZM674.789 151.641C682.594 165 688.802 172.248 680.206 157.756C678.65 155.132 683.01 163.73 680.932 160.446C677.13 154.436 675.723 149.8 671.587 143.815C670.837 142.732 674.341 150.881 674.801 151.666C674.797 151.658 674.793 151.65 674.789 151.641ZM1067.85 831.377C1067.91 831.446 1069.76 834.62 1069.79 834.706C1070.37 836.667 1066.64 830.274 1067.85 831.377ZM686.387 837.715C686.184 837.757 677.654 837.797 677.376 837.758C672.926 836.982 690.171 836.9 686.387 837.715ZM945.019 616.445C943.427 612.733 941.077 608.55 938.959 606.081C940.98 609.517 942.99 612.989 945.019 616.445Z" fill="black"/>
<path d="M29.6978 502.051C41.2863 501.921 56.477 502.06 68.0216 502.251C71.6398 502.31 69.8077 502.575 72.3053 502.628C77.1901 502.731 81.741 502.601 86.5682 502.724C88.168 502.766 86.1767 503.186 87.8541 503.22C97.0465 503.406 105.743 503.299 115.055 503.388C160.923 503.828 206.009 503.986 252.438 504.177C267.747 504.24 286.357 504.621 302.169 504.454C304.015 504.435 302.915 504.066 303.266 504.036C308.774 503.571 306.943 504.315 310.539 504.414C324.814 504.804 340.687 504.838 354.425 504.695C360.269 504.634 354.41 503.902 360.294 504.313C360.703 504.341 359.22 504.732 360.823 504.774C364.457 504.867 371.354 504.798 374.171 504.829C379.6 504.89 380.498 504.886 385.633 504.891C392.653 504.9 401.002 505.095 408.534 505.006C410.142 504.986 408.014 504.585 410.577 504.517C413.144 504.449 419.933 504.483 422.221 504.577C424.511 504.672 423.536 504.987 423.941 505.059C427.274 505.669 435.127 504.824 436.137 504.804C454.56 504.448 470.358 504.929 487.651 504.927C500.671 504.925 514.586 504.769 527 504.788L529.201 504.777L529.212 507C529.212 507.103 529.212 507.206 529.212 507.308C529.184 522.19 528.967 534.803 529.004 549.261C529.008 550.787 529.479 548.999 529.485 550.862C529.539 570.661 529.488 590.323 529.17 610.036C529.137 612.013 528.723 609.465 528.666 611.44C528.326 623.534 527.508 642.669 529.311 649.851C529.241 658.043 529.168 667.988 528.805 675.316C528.571 680.041 528.12 675.452 528.312 681.256C528.355 682.565 528.75 680.863 528.784 682.826C528.929 691.092 528.801 700.122 529.005 708.299C529.047 709.962 529.401 709.508 529.465 709.98C529.981 713.94 529.128 720.533 529.066 721.971C528.603 732.915 528.785 740.908 528.774 751.104C528.771 753.47 529.247 750.673 529.261 752.95C529.329 764.758 529.288 776.99 529.077 788.552C529.029 791.124 528.624 788.759 528.581 789.988C528.393 795.407 529.158 796.608 528.993 801.805C528.959 802.901 528.612 802.284 528.574 802.484C527.976 805.612 528.823 808.33 528.842 809.134C529.097 819.311 528.213 825.816 528.338 835.648C528.354 836.824 528.793 834.172 528.811 837.479C528.932 859.505 528.811 882.801 528.46 904.604C528.406 907.994 528.077 905.574 528.036 905.788C527.401 909.264 528.252 911.514 528.284 912.619C528.515 921.34 527.801 929.485 528.814 935.41C528.532 965.043 528.843 994.568 528.508 1024L528.515 1025.5L527 1025.51C519.752 1025.43 512.51 1025.3 505.273 1025.12C504.807 1025.11 505.641 1024.69 504.713 1024.68C493.526 1024.44 495.674 1025.09 488.272 1025.89C486.408 1026.09 480.735 1025.13 480.234 1025.06C478.405 1024.8 480.302 1024.17 479.689 1024.12C474.623 1023.73 475.448 1025.79 468.613 1025.79C468.399 1025.79 469.297 1025.41 468.724 1025.37C466.942 1025.25 465.174 1025.4 463.43 1025.27C459.439 1024.97 458.017 1023.97 451.921 1024.55C451.149 1024.63 452.327 1025.79 446.225 1025.74C443.792 1025.72 433.024 1025.74 430.005 1025.66C426.991 1025.58 429.061 1025.21 428.846 1025.19C420.724 1024.69 423.804 1024.49 419.734 1023.75C415.665 1023.01 416.794 1024.77 415.135 1024.96C413.473 1025.16 407.519 1024.75 406.055 1024.6C404.593 1024.46 406.417 1024.22 405.116 1024.14C396.493 1023.61 401.331 1025.01 398.49 1025.29C391.791 1025.95 386.573 1024.65 380.44 1024.52C378.781 1024.49 380.135 1024.78 378.657 1024.81C372.805 1024.92 369.285 1024.51 362.627 1024.88C361.538 1024.94 356.156 1025.72 352.671 1025.15C352.178 1025.07 353.58 1024.74 351.086 1024.67C347.36 1024.56 340.647 1024.49 336.641 1024.6C333.684 1024.68 337.074 1025.21 333.352 1025.05C331.698 1024.97 334.763 1024.66 331.656 1024.55C328.564 1024.44 320.661 1024.45 317.653 1024.46C314.651 1024.47 316.294 1024.88 316.052 1024.9C314.583 1025.06 308.822 1025.25 308.313 1025.25C282.631 1025.3 258.949 1024.62 233.945 1024.85C231.983 1024.86 233.29 1025.29 232.99 1025.3C226.273 1025.48 231.569 1024.34 226.877 1023.96C227.555 1024.83 224.785 1024.67 220.053 1024.77C217.773 1024.81 219.014 1025.15 218.806 1025.18C215.425 1025.69 213.07 1025.03 212.464 1024.9C210.224 1024.4 207.787 1024.99 206.263 1024.66C204.74 1024.33 208.245 1023.84 203.707 1023.85C202.435 1024.16 205.804 1024.97 202.358 1025.1C189.358 1025.6 165.091 1024.96 154.639 1024.9C144.207 1024.83 140.838 1024.89 134.759 1024.77C123.779 1024.57 127.803 1025.17 120.985 1025.45C114.147 1025.72 117.471 1024.24 116.488 1023.93C115.524 1023.61 114.47 1023.94 113.27 1023.76C112.073 1023.59 114.663 1023.37 111.85 1023.3C109.035 1023.24 101.338 1023.8 100.34 1024.14C98.2305 1024.84 101.699 1025.58 94.2499 1025.32C93.8216 1025.31 95.2117 1024.92 93.5714 1024.88C80.5422 1024.58 67.0064 1024.56 53.9932 1024.29C52.2039 1024.26 53.8039 1023.82 52.7626 1023.8C41.9161 1023.52 45.7933 1024.25 39.8486 1025.06C41.1835 1023.98 37.896 1023.32 29.6641 1023.32C24.7157 1023.31 25.5676 1023.78 22.367 1024.12C21.4068 1024.22 17.9052 1023.89 17.2708 1024.11C15.1795 1024.84 18.474 1025.65 10 1025.33L8.67993 1025.33L8.67348 1024C8.67362 1024 8.67375 1023.99 8.67388 1023.99C8.67929 1023.86 8.73206 1023.92 8.79917 1024L8.80501 1025.21L10 1025.2C10.1044 1025.11 10.2383 1025 10 1024.94L9.06793 1024.94L9.06338 1024C9.08827 1023.91 9.10526 1023.75 9.10967 1023.52C9.26682 1015.2 8.50928 1014.2 8.41754 1005.21C8.34555 998.167 8.80749 985.635 8.88262 977.611C10.0954 977.78 9.81767 970.201 8.9815 967.127C9.01573 961.92 8.96846 956.295 9.08404 951.263C9.12344 949.53 9.47457 950.668 9.5125 950.45C10.1077 947.101 9.29415 944.837 9.26226 943.713C8.95224 931.531 9.56881 921.606 8.96624 909.98C8.94454 909.568 8.10213 908.899 8.71722 905.791C8.75962 905.59 9.1429 909.43 9.17254 903.961C9.20225 898.491 9.65384 888.18 9.26348 880.587C9.16951 878.749 8.48564 874.101 9.01995 870.371C9.09251 869.874 9.33411 870.417 9.46856 869.7C9.89695 867.381 9.04549 866.115 9.76885 863.389C10.4922 860.663 11.0339 854.993 10.5348 847.335C10.5203 847.091 9.84546 845.279 9.85613 842.87C9.87375 839.026 10.0143 833.568 10.0099 829.554C10.0076 827.632 9.58853 828.862 9.58086 828.528C9.34604 815.605 9.71963 806.408 9.88177 792.563C9.91232 790.025 9.34086 782.732 9.79266 777.819C10.2872 772.424 12.3446 777.968 11.8544 765.568C11.6584 760.566 9.04826 754.234 10.4006 745.246C10.0655 727.815 10.7576 711.694 10.2791 694.214C10.2579 693.427 9.52945 690.942 9.53936 689.094C9.55549 686.35 9.89596 684.844 9.91839 682.885C10.0209 674.677 9.72965 667.165 9.77496 659.25C9.79142 656.246 10.1435 657.296 10.1631 653.712C10.1825 650.131 9.71891 647.743 9.9428 642.889C10.1135 639.223 11.061 635.558 11.1714 630.693C10.2368 630.507 10.2561 627.166 10.0093 621.226C9.96146 620.085 9.63616 621.309 9.59673 620.769C9.42907 618.571 9.69868 616.537 9.51617 614.45C9.47233 613.942 9.15315 613.918 9.0993 613.503C8.62924 609.974 9.34721 604.16 9.47222 603.161C9.94698 599.334 9.53185 597.545 9.7188 594.609C9.90574 591.679 10.1394 596.061 10.2529 592.637C10.4875 585.541 10.4359 576.423 10.4506 569.215C10.4545 566.34 10.0284 568.302 10.0191 567.89C9.91103 561.944 10.3642 555.93 9.51556 552.633C11.7099 548.51 9.30271 549.047 9.742 540.547C9.77753 539.878 10.8152 539.026 10.9676 541.597C11.1198 544.167 10.7954 548.065 11.0329 551.631C11.0886 552.476 12.061 557.314 12.1199 557.974C12.5803 563.144 11.0296 563.877 10.9444 564.151C10.0252 567.253 11.0728 573.165 11.1452 574.722C11.4769 581.844 11.2588 587.895 11.4955 593.852C11.6485 597.748 12.6643 598.129 12.6332 601.189C12.5305 611.359 11.1134 614.909 12.3421 624.492C12.6041 626.547 13.7143 624.505 12.8414 631.868C12.7863 632.331 11.9877 637.798 12.4928 640.956C12.5565 641.353 12.8801 641.34 12.9073 641.863C13.0831 645.37 12.8253 647.708 12.9488 651.527C13.0722 655.346 13.2563 659.939 13.1465 664.299C13.0809 666.927 12.4781 670.299 12.3305 671.557C11.9053 675.109 12.6024 678.918 12.0876 681.118C11.5701 683.337 10.7843 678.999 10.45 684.818C11.2906 685.033 12.1534 685.529 12.9988 685.875C12.9692 698.627 12.6974 711.175 12.7345 723.97C12.74 725.556 13.1919 723.934 13.2094 725.635C13.2812 732.809 12.959 739.076 13.0873 746.516C13.1884 752.276 13.6668 758.591 13.7874 764.613C12.8255 768.292 13.152 777.228 13.0641 783.72C13.0338 785.994 12.7768 785.842 12.693 787.459C12.3831 793.56 13.2331 790.701 13.3669 792.374C13.9378 799.55 12.0138 800.164 12.0613 808.625C12.0632 809.073 13.0888 814.552 13.1526 815.307C13.5691 820.102 12.7957 816.1 12.7199 819.101C12.5814 824.58 12.3365 828.388 12.6369 834.816C12.7259 836.69 13.3651 841.187 12.8706 844.827C12.8059 845.306 12.4669 845.041 12.4471 845.426C12.1161 852.403 13.1813 852.586 13.542 856.573C13.9027 860.561 13.1674 866.719 12.9555 867.972C12.4073 871.251 12.7212 865.46 12.6674 865.282C12.0272 863.197 12.1374 867.688 12.0833 871.12C11.0389 871.617 11.1016 876.416 12.0314 874.678C12.133 874.48 12.0356 871.809 12.0833 871.12C13.108 874.133 13.2392 879.407 12.2817 885.233C11.8329 887.96 11.3096 885.382 11.501 893.666C11.5874 897.426 12.3066 895.973 12.5026 899.291C12.9499 906.871 12.2791 916.721 12.3848 924.535C12.4232 927.371 12.8168 924.609 12.8566 926.547C12.9634 931.691 12.6681 936.227 12.8194 941.394C12.8336 941.862 13.2456 940.718 13.2509 942.325C13.2988 954.503 13.0348 965.108 13.0275 977.824C13.0242 983.968 13.2514 994.952 13.2057 1001.32C13.1563 1008.42 12.8902 1016.58 12.7459 1024L10 1021.25C14.105 1021.33 17.9861 1021.38 21.3415 1021.32C27.4876 1021.23 26.1392 1020.82 28.7727 1020.54C33.8546 1019.99 42.85 1020.97 44.0612 1021.12C44.0983 1021.13 38.8095 1021.22 41.6315 1021.43C43.2722 1021.87 44.0016 1021.12 44.0612 1021.12C44.8567 1021.22 55.4217 1021.31 57.5195 1021.23C58.6595 1021.19 58.0218 1020.8 58.6161 1020.78C72.7434 1020.43 86.8953 1020.34 101.224 1020.52C101.476 1020.53 101.096 1020.96 101.689 1020.98C109.984 1021.17 115.296 1020.64 122.137 1020.32C128.977 1020 134.402 1020.11 138.451 1020.86C143.612 1020.76 151.017 1021.09 155.278 1021.3C159.538 1021.5 160.133 1020.65 160.508 1020.63C172.202 1020.09 178.961 1020.58 191.093 1020.65C196.861 1020.69 208.301 1020.57 214.546 1020.48C219.482 1020.4 222.455 1020.6 227.003 1020.47C227.618 1020.45 226.996 1020.08 227.184 1020.06C232.26 1019.61 229.82 1020.53 230.868 1020.7C234.667 1021.3 237.015 1021.62 243.514 1021.34C245.013 1021.27 249.38 1019.94 252.113 1019.86C255.666 1019.76 254.325 1020.24 258.045 1020.13C258.363 1020.12 258.297 1019.82 260.593 1019.83C271.251 1019.89 282.871 1020.06 293.947 1020.03C295.46 1020.03 293.52 1019.56 295.706 1019.55C305.963 1019.5 317.206 1019.51 327.199 1019.73C329.658 1019.79 328.116 1020.11 328.65 1020.21C331.928 1020.8 336.577 1019.95 337.344 1019.93C355.639 1019.52 369.642 1020.29 388.289 1019.92C389.305 1019.9 397.118 1018.99 400.604 1019.77C400.843 1019.82 404.291 1020.63 407.341 1020.08C407.53 1020.04 405.381 1019.63 409.132 1019.67C412.882 1019.71 418.918 1019.44 424.073 1019.89C425.705 1020.04 429.563 1020.84 434.431 1020.2C434.748 1020.15 442.264 1018.71 444.947 1019.71C445.382 1019.87 444.927 1020.92 450.737 1020.38C451.847 1020.28 449.832 1020.04 452.757 1019.9C457.238 1019.67 463.176 1019.95 468.684 1019.48C469.645 1019.4 473.735 1018.68 477.015 1019.23C477.529 1019.31 476.553 1019.66 478.285 1019.7C486.523 1019.89 495.149 1019.66 503.513 1019.9C506.476 1019.99 504.961 1020.56 508.049 1020.71C511.138 1020.86 517.361 1021.01 520.593 1020.75C523.825 1020.49 520.294 1019.58 525.137 1019.51C525.758 1019.5 526.379 1019.49 527 1019.48L522.481 1024C522.223 1003.58 522.726 983.336 522.802 962.934C522.813 959.816 522.489 962.401 522.483 957.807C522.458 940.867 522.154 911.62 522.844 896.921C523.397 885.143 523.817 899.964 524.042 890.965C524.149 886.622 523.094 881.923 523.061 880.875C522.724 870.633 523.191 863.516 523.048 854.297C523.018 852.394 522.591 854.261 522.57 852.641C522.496 847.107 522.687 841.291 522.652 836.003C522.635 833.631 522.308 834.068 522.334 831.885C522.39 826.662 522.528 822.044 522.834 816.952C522.861 816.488 523.268 819.617 523.283 815.753C523.306 809.498 523.608 801.735 523.296 794.54C523.202 792.405 522.456 792.321 522.972 787.732C523.079 786.769 523.975 787.997 523.201 782.651C523.072 781.752 522.028 772.772 522.701 768.365C522.878 767.202 523.612 764.235 523.496 761.667C523.478 761.319 523.077 762.714 523.038 760.586C522.907 753.088 522.95 745.23 522.824 737.527C522.79 735.47 522.375 738.534 522.337 735.468C522.233 727.038 522.338 716.512 522.468 708.268C522.517 705.228 522.86 707.329 522.898 707.108C523.506 703.552 522.685 701.449 522.637 700.268C522.35 692.927 522.736 687.337 522.634 680.57C522.607 678.703 522.215 680.027 522.181 679.655C521.839 675.8 522.542 678.672 522.62 676.231C522.839 669.395 522.808 661.774 522.758 654.86C522.739 652.321 522.285 655.175 522.273 652.896C522.195 639.408 522.238 625.385 522.489 612.221C522.537 609.743 522.886 611.302 522.966 610.786C523.525 607.225 522.763 602.007 522.69 600.806C522.359 595.347 522.668 593.226 522.61 588.405C522.323 564.853 522.528 535.772 522.654 513.54C522.667 511.324 522.68 509.146 522.694 507L527 511.306C501.1 511.135 479.976 510.857 454.463 510.937C452.707 510.942 454.478 511.407 452.964 511.417C433.422 511.529 414.184 511.348 394.603 511.482C392.996 511.492 395.312 511.933 392.733 511.964C387.443 512.031 380.742 512.007 375.393 511.866C372.785 511.799 376.284 511.42 373.658 511.36C367.543 511.218 360.989 511.187 354.709 511.257C352.036 511.288 356.069 511.739 352.595 511.744C328.931 511.789 305.69 511.867 281.777 511.283C280.137 511.243 278.699 510.327 275.213 510.502C274.951 510.757 274.965 511.056 274.85 511.328C240.402 511.474 206.305 511.156 171.76 511.107C170.303 511.105 172.82 511.591 170 511.589C153.68 511.582 137.831 511.717 121.137 511.234C119.481 511.187 120.33 510.333 115.449 510.462C114.588 510.486 107.236 510.6 105.336 510.785C105.078 510.813 106.419 511.212 104.05 511.223C90.2829 511.284 75.856 511.193 62.1129 510.949C59.8949 510.909 62.2569 510.485 60.6772 510.452C49.471 510.227 37.2819 510.55 26.5738 510.164C19.4063 509.905 22.0599 509.171 18.2511 508.449C17.7124 508.347 13.2741 508.33 13.0445 507.91C12.4553 506.853 14.6051 505.696 13.723 504.57C13.5366 504.327 7.59246 504.588 11.1118 504.002C11.3576 503.963 15.6672 503.768 16.7286 503.569C17.4676 503.432 16.1359 503.004 17.6437 502.828C19.1514 502.653 20.8082 503.011 23.3079 502.804C25.8065 502.595 24.7078 502.108 29.6978 502.051ZM174.463 1022.19C178.409 1022.6 178.991 1021.11 174.724 1021.47C174.517 1021.48 174.26 1022.17 174.463 1022.19ZM11.5694 711.103C10.9098 716.261 11.8797 719.791 12.3891 716.152C12.898 712.514 11.7693 709.532 11.5694 711.103ZM11.0878 657.617C10.5677 663.646 12.6884 664.595 12.2597 658.138C12.2355 657.763 11.118 657.265 11.0878 657.617ZM35.9142 508.243C35.8597 508.223 32.6693 508.204 32.593 508.223C30.8941 508.698 37.2738 508.737 35.9142 508.243ZM10.5635 604.541C10.2767 606.423 10.6078 611.842 10.9645 609.504C11.2515 607.621 10.9204 602.198 10.5635 604.541ZM380.274 1023.79C380.337 1023.81 382.624 1023.83 382.578 1023.71C382.423 1023.3 379.24 1023.42 380.274 1023.79ZM10.5391 514.333C10.4593 527.661 8.70754 535.742 8.90521 521.228C8.94097 518.599 9.46383 526.892 9.62176 523.547C9.90948 517.426 8.8096 513.361 9.39898 507.115C9.50686 505.984 10.5476 513.573 10.5416 514.357C10.5407 514.349 10.5399 514.341 10.5391 514.333ZM176.735 1023.99C176.814 1024.01 179.98 1024.03 180.056 1024.01C181.771 1023.53 175.392 1023.5 176.735 1023.99ZM513.745 1024.72C513.92 1024.76 521.268 1024.8 521.508 1024.76C525.341 1023.98 510.485 1023.9 513.745 1024.72ZM8.91497 977.485C8.43735 974.03 8.38112 969.897 8.98089 967.143C8.94905 970.576 8.94436 974.033 8.91497 977.485Z" fill="black"/>
<path d="M294.654 327.051C325.632 326.921 366.238 327.06 397.098 327.251C406.77 327.31 401.873 327.575 408.549 327.628C421.607 327.731 433.772 327.601 446.676 327.724C450.952 327.766 445.629 328.186 450.113 328.22C474.685 328.406 497.931 328.299 522.823 328.388C645.433 328.828 765.956 328.986 890.065 329.177C930.988 329.24 980.734 329.621 1023 329.454C1027.94 329.435 1024.99 329.066 1025.93 329.036C1040.66 328.571 1035.76 329.315 1045.38 329.414C1083.53 329.804 1125.97 329.838 1162.69 329.695C1178.31 329.634 1162.65 328.902 1178.38 329.313C1179.47 329.341 1175.5 329.732 1179.79 329.774C1189.51 329.867 1207.94 329.798 1215.47 329.829C1229.98 329.89 1232.38 329.886 1246.11 329.891C1264.88 329.9 1287.19 330.095 1307.33 330.006C1311.62 329.986 1305.94 329.585 1312.79 329.517C1319.65 329.449 1337.8 329.483 1343.91 329.577C1350.03 329.672 1347.43 329.987 1348.51 330.059C1357.42 330.669 1378.41 329.824 1381.11 329.804C1430.36 329.448 1472.59 329.929 1518.82 329.927C1553.91 329.925 1591.43 329.766 1624.82 329.788C1664.61 329.816 1698.32 330.033 1736.97 329.996C1741.05 329.992 1736.27 329.521 1741.25 329.515C1794.17 329.461 1846.73 329.512 1899.43 329.83C1904.71 329.863 1897.9 330.277 1903.18 330.334C1935.51 330.674 1986.66 331.492 2005.86 329.689C2027.75 329.759 2054.34 329.832 2073.93 330.195C2086.56 330.429 2074.29 330.88 2089.81 330.688C2093.31 330.645 2088.76 330.25 2094 330.216C2104.37 330.148 2115.18 330.14 2126 330.13L2127.87 330.126L2127.87 332C2127.88 344.244 2127.9 356.491 2128 368.096C2128.05 372.542 2128.4 371.328 2128.47 372.588C2128.98 383.174 2128.13 400.799 2128.07 404.641C2127.6 433.897 2127.79 455.263 2127.77 482.518C2127.77 488.842 2128.25 481.366 2128.26 487.452C2128.33 519.017 2128.29 551.714 2128.08 582.621C2128.03 589.496 2127.62 583.174 2127.58 586.459C2127.39 600.945 2128.16 604.156 2127.99 618.048C2127.96 620.977 2127.61 619.327 2127.57 619.862C2126.98 628.223 2127.82 635.488 2127.84 637.639C2128.1 664.844 2127.21 682.233 2127.34 708.514C2127.35 711.659 2127.79 704.569 2127.81 713.407C2127.93 772.287 2127.81 834.56 2127.46 892.842C2127.41 901.904 2127.08 895.435 2127.04 896.005C2126.4 905.299 2127.25 911.313 2127.28 914.267C2127.51 937.577 2126.8 959.351 2127.81 975.189C2127.53 1054.4 2127.84 1133.32 2127.51 1212L2127.51 1213.5L2126 1213.51C2106.63 1213.43 2087.27 1213.3 2067.92 1213.12C2066.68 1213.11 2068.91 1212.69 2066.42 1212.68C2036.52 1212.44 2042.26 1213.09 2022.48 1213.89C2017.49 1214.09 2002.33 1213.13 2000.99 1213.06C1996.1 1212.8 2001.17 1212.17 1999.53 1212.12C1985.99 1211.73 1988.2 1213.79 1969.93 1213.79C1969.35 1213.79 1971.75 1213.41 1970.22 1213.37C1965.46 1213.25 1960.73 1213.4 1956.07 1213.27C1945.4 1212.97 1941.6 1211.97 1925.3 1212.55C1923.24 1212.63 1926.39 1213.79 1910.08 1213.74C1903.58 1213.72 1874.79 1213.74 1866.72 1213.66C1858.66 1213.58 1864.2 1213.21 1863.62 1213.19C1841.91 1212.69 1850.14 1212.49 1839.27 1211.75C1828.39 1211.01 1831.41 1212.77 1826.97 1212.96C1822.53 1213.16 1806.61 1212.75 1802.7 1212.6C1798.79 1212.46 1803.67 1212.22 1800.19 1212.14C1777.14 1211.61 1790.07 1213.01 1782.48 1213.29C1764.57 1213.95 1750.62 1212.65 1734.23 1212.52C1729.79 1212.49 1733.41 1212.78 1729.46 1212.81C1713.82 1212.92 1704.41 1212.51 1686.61 1212.88C1683.7 1212.94 1669.31 1213.72 1660 1213.15C1658.68 1213.07 1662.43 1212.74 1655.76 1212.67C1645.8 1212.56 1627.86 1212.49 1617.15 1212.6C1609.25 1212.68 1618.31 1213.21 1608.36 1213.05C1603.93 1212.97 1612.13 1212.66 1603.82 1212.55C1595.56 1212.44 1574.43 1212.45 1566.39 1212.46C1558.37 1212.47 1562.76 1212.88 1562.11 1212.9C1558.19 1213.06 1542.79 1213.25 1541.42 1213.25C1472.77 1213.3 1409.47 1212.62 1342.63 1212.85C1337.39 1212.86 1340.88 1213.29 1340.08 1213.3C1322.12 1213.48 1336.28 1212.34 1323.74 1211.96C1325.55 1212.83 1318.14 1212.67 1305.49 1212.77C1299.4 1212.81 1302.72 1213.15 1302.16 1213.18C1293.12 1213.69 1286.83 1213.03 1285.21 1212.9C1279.22 1212.4 1272.71 1212.99 1268.63 1212.66C1264.56 1212.33 1273.93 1211.84 1261.8 1211.85C1258.4 1212.16 1267.41 1212.97 1258.2 1213.1C1223.44 1213.6 1158.58 1212.96 1130.64 1212.9C1102.75 1212.83 1093.74 1212.89 1077.49 1212.77C1048.14 1212.57 1058.9 1213.17 1040.68 1213.45C1022.4 1213.72 1031.28 1212.24 1028.66 1211.93C1026.08 1211.61 1023.26 1211.94 1020.05 1211.76C1016.85 1211.59 1023.78 1211.37 1016.26 1211.3C1008.73 1211.24 988.157 1211.8 985.489 1212.14C979.85 1212.84 989.122 1213.58 969.209 1213.32C968.064 1213.31 971.781 1212.92 967.396 1212.88C932.567 1212.58 896.385 1212.56 861.599 1212.29C856.816 1212.26 861.093 1211.82 858.309 1211.8C829.315 1211.52 839.68 1212.25 823.789 1213.06C827.357 1211.98 818.569 1211.32 796.565 1211.32C783.336 1211.31 785.614 1211.78 777.058 1212.12C774.492 1212.22 765.132 1211.89 763.436 1212.11C757.843 1212.84 766.659 1213.65 743.972 1213.33C742.977 1213.31 746.146 1212.91 742.707 1212.89C720.475 1212.73 717.815 1213.49 693.783 1213.58C674.947 1213.65 641.445 1213.19 619.997 1213.12C620.449 1211.9 600.189 1212.18 591.972 1213.02C578.052 1212.98 563.018 1213.03 549.564 1212.92C544.934 1212.88 547.976 1212.53 547.392 1212.49C538.439 1211.89 532.388 1212.71 529.384 1212.74C496.82 1213.05 470.29 1212.43 439.213 1213.03C438.11 1213.06 436.322 1213.9 428.015 1213.28C427.478 1213.24 437.741 1212.86 423.123 1212.83C408.501 1212.8 380.938 1212.35 360.64 1212.74C355.728 1212.83 343.303 1213.51 333.331 1212.98C332.003 1212.91 333.456 1212.67 331.539 1212.53C325.339 1212.1 321.955 1212.95 314.669 1212.23C307.382 1211.51 292.226 1210.97 271.755 1211.47C271.103 1211.48 266.257 1212.15 259.82 1212.14C254.629 1212.13 248.338 1212.09 242 1212.06L241.943 1212.06L241.942 1212C241.979 1205.79 242.012 1199.53 242.01 1194.22C242.008 1189.09 241.589 1192.37 241.581 1191.48C241.346 1156.94 241.72 1132.35 241.882 1095.34C241.912 1088.56 241.341 1069.06 241.793 1055.93C242.287 1041.51 244.345 1056.33 243.854 1023.18C243.658 1009.81 241.048 992.886 242.401 968.859C242.065 922.263 242.758 879.17 242.279 832.443C242.258 830.342 241.529 823.697 241.539 818.757C241.555 811.423 241.896 807.398 241.918 802.161C242.021 780.218 241.73 760.139 241.775 738.983C241.791 730.95 242.143 733.759 242.163 724.179C242.182 714.605 241.719 708.221 241.943 695.247C242.113 685.448 243.061 675.651 243.171 662.645C242.237 662.149 242.256 653.217 242.009 637.34C241.961 634.288 241.636 637.561 241.597 636.117C241.429 630.242 241.699 624.804 241.516 619.226C241.472 617.868 241.153 617.804 241.099 616.695C240.629 607.261 241.347 591.719 241.472 589.049C241.947 578.818 241.532 574.037 241.719 566.19C241.906 558.356 242.139 570.07 242.253 560.918C242.487 541.948 242.436 517.575 242.451 498.309C242.454 490.622 242.028 495.866 242.019 494.766C241.911 478.87 242.364 462.796 241.516 453.982C243.71 442.962 241.303 444.397 241.742 421.676C241.778 419.886 242.815 417.609 242.968 424.481C243.12 431.352 242.795 441.771 243.033 451.304C243.089 453.562 244.061 466.494 244.12 468.259C244.58 482.08 243.03 484.039 242.944 484.77C242.025 493.063 243.073 508.866 243.145 513.028C243.477 532.066 243.259 548.242 243.496 564.166C243.649 574.58 244.664 575.599 244.633 583.777C244.53 610.963 243.113 620.452 244.342 646.07C244.604 651.563 245.714 646.104 244.841 665.787C244.786 667.024 243.988 681.637 244.493 690.08C244.557 691.14 244.88 691.107 244.907 692.505C245.083 701.877 244.825 708.128 244.949 718.338C245.072 728.546 245.256 740.822 245.147 752.479C245.081 759.503 244.478 768.517 244.33 771.879C243.905 781.374 244.602 791.555 244.088 797.438C243.57 803.37 242.784 791.773 242.45 807.328C243.291 807.904 244.153 809.227 244.999 810.153C244.969 844.242 244.697 877.783 244.735 911.986C244.74 916.226 245.192 911.89 245.209 916.435C245.281 935.614 244.959 952.366 245.087 972.255C245.188 987.65 245.667 1004.53 245.787 1020.63C244.825 1030.46 245.152 1054.35 245.064 1071.7C245.034 1077.78 244.777 1077.38 244.693 1081.7C244.383 1098.01 245.233 1090.37 245.367 1094.84C245.938 1114.02 244.014 1115.66 244.061 1138.28C244.063 1139.48 245.089 1154.12 245.153 1156.14C245.569 1168.96 244.796 1158.26 244.72 1166.28C244.581 1180.93 244.336 1191.11 244.637 1208.29C244.654 1209.28 244.693 1210.54 244.741 1212L242 1209.26C247.951 1209.07 257.238 1208.73 265.049 1209.13C266.329 1209.19 265.622 1209.53 266.652 1209.55C285.301 1209.88 285.792 1208.82 296.449 1208.46C307.108 1208.1 323.57 1208.83 326.921 1209.04C335.685 1209.59 320.204 1209.28 319.73 1209.33C314.154 1209.97 326.16 1209.86 335.335 1209.92C336.663 1210.96 349.493 1210.9 344.845 1209.97C344.316 1209.87 337.177 1209.96 335.335 1209.92C343.387 1208.89 357.487 1208.76 373.06 1209.72C380.35 1210.17 373.459 1210.69 395.603 1210.5C405.653 1210.41 401.77 1209.69 410.639 1209.5C430.901 1209.05 457.23 1209.72 478.119 1209.62C485.701 1209.58 478.316 1209.18 483.497 1209.14C497.247 1209.04 509.374 1209.33 523.184 1209.18C524.435 1209.17 521.378 1208.75 525.672 1208.75C558.228 1208.7 586.576 1208.97 620.567 1208.97C636.99 1208.98 666.352 1208.75 683.366 1208.79C712.853 1208.87 749.127 1209.47 774.317 1209.32C790.746 1209.23 787.142 1208.82 794.182 1208.54C807.766 1207.99 831.812 1208.97 835.05 1209.12C835.149 1209.13 821.011 1209.22 828.555 1209.43C832.941 1209.87 834.89 1209.12 835.05 1209.12C837.176 1209.22 865.418 1209.31 871.025 1209.23C874.072 1209.19 872.368 1208.8 873.956 1208.78C911.72 1208.43 949.55 1208.34 987.851 1208.52C988.525 1208.53 987.51 1208.96 989.095 1208.98C1011.27 1209.17 1025.47 1208.64 1043.75 1208.32C1062.04 1208 1076.54 1208.11 1087.36 1208.86C1101.16 1208.76 1120.95 1209.09 1132.34 1209.3C1143.73 1209.5 1145.32 1208.65 1146.32 1208.63C1177.58 1208.09 1195.65 1208.58 1228.08 1208.65C1243.5 1208.69 1274.08 1208.57 1290.78 1208.48C1303.97 1208.4 1311.92 1208.6 1324.07 1208.47C1325.72 1208.45 1324.06 1208.08 1324.56 1208.06C1338.13 1207.61 1331.6 1208.53 1334.41 1208.7C1344.56 1209.3 1350.84 1209.62 1368.21 1209.34C1372.22 1209.27 1383.89 1207.94 1391.2 1207.86C1400.69 1207.76 1397.11 1208.24 1407.05 1208.13C1407.9 1208.12 1407.73 1207.82 1413.86 1207.83C1442.35 1207.89 1473.42 1208.06 1503.02 1208.03C1507.07 1208.03 1501.88 1207.56 1507.73 1207.55C1535.14 1207.5 1565.2 1207.51 1591.91 1207.73C1598.48 1207.79 1594.36 1208.11 1595.79 1208.21C1604.55 1208.8 1616.98 1207.95 1619.03 1207.93C1667.93 1207.52 1705.36 1208.29 1755.21 1207.92C1757.92 1207.9 1778.81 1206.99 1788.13 1207.77C1788.77 1207.82 1797.99 1208.63 1806.14 1208.08C1806.64 1208.04 1800.9 1207.63 1810.92 1207.67C1820.95 1207.71 1837.08 1207.44 1850.86 1207.89C1855.23 1208.04 1865.54 1208.84 1878.55 1208.2C1879.4 1208.15 1899.49 1206.71 1906.66 1207.71C1907.83 1207.87 1906.61 1208.92 1922.14 1208.38C1925.11 1208.28 1919.72 1208.04 1927.54 1207.9C1939.52 1207.67 1955.39 1207.95 1970.12 1207.48C1972.68 1207.4 1983.62 1206.68 1992.38 1207.23C1993.76 1207.31 1991.15 1207.66 1995.78 1207.7C2017.8 1207.89 2040.86 1207.66 2063.22 1207.9C2071.14 1207.99 2067.09 1208.56 2075.34 1208.71C2083.6 1208.86 2100.23 1209.01 2108.87 1208.75C2117.51 1208.49 2108.07 1207.58 2121.02 1207.51C2122.68 1207.5 2124.34 1207.49 2126 1207.48L2121.48 1212C2121.22 1157.41 2121.73 1103.3 2121.8 1048.76C2121.81 1040.43 2121.49 1047.34 2121.48 1035.06C2121.46 989.775 2121.15 911.595 2121.84 872.303C2122.4 840.82 2122.82 880.439 2123.04 856.381C2123.15 844.772 2122.09 832.213 2122.06 829.41C2121.72 802.033 2122.19 783.007 2122.05 758.366C2122.02 753.277 2121.59 758.268 2121.57 753.937C2121.5 739.145 2121.69 723.598 2121.65 709.463C2121.64 703.122 2121.31 704.29 2121.33 698.456C2121.39 684.494 2121.53 672.147 2121.83 658.537C2121.86 657.296 2122.27 665.661 2122.28 655.331C2122.31 638.613 2122.61 617.861 2122.3 598.626C2122.2 592.919 2121.46 592.696 2121.97 580.428C2122.08 577.854 2122.98 581.138 2122.2 566.847C2122.07 564.444 2121.03 540.438 2121.7 528.658C2121.88 525.55 2122.61 517.617 2122.5 510.754C2122.48 509.823 2122.08 513.552 2122.04 507.865C2121.91 487.822 2121.95 466.817 2121.82 446.226C2121.79 440.727 2121.38 448.917 2121.34 440.722C2121.23 418.186 2121.34 390.049 2121.47 368.012C2121.52 359.887 2121.86 365.503 2121.9 364.912C2122.51 355.405 2121.68 349.784 2121.64 346.629C2121.56 341.477 2121.53 336.648 2121.53 332L2126 336.471C2112.94 336.481 2101.31 336.291 2087.97 336.366C2082.98 336.393 2086.52 336.785 2085.53 336.819C2075.22 337.161 2082.9 336.458 2076.37 336.38C2058.1 336.161 2037.73 336.192 2019.25 336.242C2012.46 336.261 2020.09 336.715 2014 336.727C1977.94 336.805 1940.46 336.762 1905.27 336.511C1898.64 336.463 1902.81 336.114 1901.43 336.034C1891.91 335.475 1877.97 336.237 1874.75 336.31C1860.16 336.641 1854.49 336.332 1841.61 336.39C1778.65 336.677 1700.91 336.472 1641.48 336.346C1564.04 336.183 1503.95 335.851 1430.1 335.937C1425.41 335.942 1430.14 336.407 1426.09 336.417C1373.86 336.529 1322.43 336.348 1270.09 336.482C1265.79 336.492 1271.98 336.933 1265.09 336.964C1250.95 337.031 1233.04 337.007 1218.74 336.866C1211.76 336.799 1221.12 336.42 1214.1 336.36C1197.75 336.218 1180.23 336.187 1163.45 336.257C1156.3 336.288 1167.08 336.739 1157.79 336.744C1094.54 336.789 1032.41 336.867 968.491 336.283C964.108 336.243 960.263 335.327 950.946 335.502C950.244 335.757 950.282 336.056 949.976 336.328C857.89 336.474 766.745 336.156 674.402 336.107C670.508 336.105 677.237 336.591 669.699 336.589C626.072 336.582 583.707 336.717 539.082 336.234C534.654 336.187 536.926 335.333 523.878 335.462C521.576 335.486 501.924 335.6 496.843 335.785C496.153 335.813 499.739 336.212 493.406 336.223C456.605 336.284 418.041 336.193 381.304 335.949C375.375 335.909 381.689 335.485 377.466 335.452C347.511 335.227 314.928 335.55 286.304 335.164C267.144 334.905 274.238 334.171 264.056 333.449C262.616 333.347 250.752 333.33 250.138 332.91C248.563 331.853 254.31 330.696 251.952 329.57C251.454 329.327 235.564 329.588 244.972 329.002C245.629 328.963 257.149 328.768 259.986 328.569C261.962 328.432 258.402 328.004 262.433 327.828C266.463 327.653 270.891 328.011 277.573 327.804C284.253 327.595 281.316 327.108 294.654 327.051ZM1183.63 1210.19C1194.18 1210.6 1195.73 1209.11 1184.32 1209.47C1183.77 1209.48 1183.09 1210.17 1183.63 1210.19ZM243.569 877.592C242.91 891.38 243.88 900.815 244.389 891.088C244.898 881.363 243.769 873.391 243.569 877.592ZM243.088 734.617C242.568 750.732 244.688 753.268 244.26 736.009C244.235 735.006 243.118 733.675 243.088 734.617ZM311.272 333.243C311.126 333.223 302.597 333.204 302.394 333.223C297.852 333.698 314.906 333.737 311.272 333.243ZM242.564 592.739C242.277 597.77 242.608 612.254 242.965 606.004C243.251 600.972 242.92 586.474 242.564 592.739ZM1733.79 1211.79C1733.95 1211.81 1740.07 1211.83 1739.94 1211.71C1739.53 1211.3 1731.02 1211.42 1733.79 1211.79ZM242.539 351.602C242.459 387.229 240.708 408.83 240.905 370.032C240.941 363.007 241.464 385.174 241.622 376.232C241.909 359.869 240.81 349.004 241.399 332.306C241.507 329.284 242.548 349.569 242.542 351.665C242.541 351.644 242.54 351.623 242.539 351.602ZM1189.7 1211.99C1189.91 1212.01 1198.38 1212.03 1198.58 1212.01C1203.16 1211.53 1186.11 1211.5 1189.7 1211.99ZM2090.57 1212.72C2091.04 1212.76 2110.68 1212.8 2111.32 1212.76C2121.57 1211.98 2081.85 1211.9 2090.57 1212.72ZM619.66 1213.09C610.424 1213.56 599.376 1213.62 592.014 1213.02C601.192 1213.05 610.432 1213.06 619.66 1213.09Z" fill="black"/>
</g>
<defs>
<clipPath id="clip0_385_2">
<rect width="2048" height="1024" fill="white"/>
</clipPath>
</defs>
</svg>
